<svg width="81" height="100" viewBox="0 0 81 100" fill="none" xmlns="http://www.w3.org/2000/svg">
<path d="M14.8359 19.3334C14.4474 19.3334 14.0748 19.4877 13.8001 19.7624C13.5254 20.0372 13.3711 20.4097 13.3711 20.7982V20.9254C13.3711 21.3139 13.5254 21.6865 13.8001 21.9612C14.0748 22.2359 14.4474 22.3902 14.8359 22.3902C15.2244 22.3902 15.597 22.2359 15.8717 21.9612C16.1464 21.6865 16.3008 21.3139 16.3008 20.9254V20.7982C16.3008 20.4097 16.1464 20.0372 15.8717 19.7624C15.597 19.4877 15.2244 19.3334 14.8359 19.3334ZM79.2387 6.41016L73.9035 3.33223C70.1189 1.15062 65.8276 0.0015242 61.4592 0L44.0514 0C42.9627 0 42.0771 0.885547 42.0771 1.97402V8.59531C42.0771 9.68398 42.9627 10.5695 44.0514 10.5695H47.5949V17.6566H44.6697C43.2402 17.6566 42.0771 18.8197 42.0771 20.2492V23.9807H41.7697C36.4232 23.9807 32.0736 28.3303 32.0736 33.6768V65.4914C32.0736 65.8799 32.228 66.2525 32.5027 66.5272C32.7774 66.8019 33.15 66.9563 33.5385 66.9563C33.927 66.9563 34.2996 66.8019 34.5743 66.5272C34.849 66.2525 35.0033 65.8799 35.0033 65.4914V33.6771C35.0033 29.9461 38.0387 26.9107 41.7697 26.9107H66.7063C70.4373 26.9107 73.4727 29.9461 73.4727 33.6771V93.1627C73.4727 95.3174 71.7197 97.0703 69.565 97.0703H58.1473C57.3383 97.0703 56.6824 97.726 56.6824 98.5352C56.6824 99.3443 57.3383 100 58.1473 100H69.565C73.3352 100 76.4023 96.9328 76.4023 93.1627V33.6771C76.4023 28.3307 72.0527 23.9811 66.7063 23.9811H66.3988V20.2496C66.3988 18.8201 65.2357 17.657 63.8062 17.657H60.8811V10.5697H78.1248C79.1479 10.5697 80.0131 9.90586 80.2777 8.91758C80.5424 7.9293 80.125 6.92168 79.2387 6.41016ZM63.4691 20.5865V23.9811H45.0068V20.5865H63.4691ZM50.5246 17.6568V10.5697H57.9514V17.6568H50.5246ZM59.4162 7.64004H45.0068V2.92969H61.4592C65.3084 2.92969 69.1053 3.94648 72.4393 5.86992L75.5076 7.64004H59.4162Z" fill="black"/>
<path d="M54.2371 45.4155C47.9764 45.4155 42.8828 50.5091 42.8828 56.77V65.4917C42.8828 65.8802 43.0371 66.2528 43.3119 66.5275C43.5866 66.8022 43.9592 66.9565 44.3477 66.9565C44.7362 66.9565 45.1087 66.8022 45.3835 66.5275C45.6582 66.2528 45.8125 65.8802 45.8125 65.4917V56.77C45.8125 52.1247 49.5918 48.3452 54.2371 48.3452C58.8826 48.3452 62.6619 52.1247 62.6619 56.77V67.2112C62.6619 70.1769 61.074 72.9577 58.518 74.469C58.1849 74.6674 57.944 74.9898 57.8482 75.3654C57.7523 75.7411 57.8093 76.1394 58.0066 76.4731C58.2039 76.8068 58.5254 77.0487 58.9008 77.1458C59.2761 77.2429 59.6746 77.1872 60.009 76.9909C63.4523 74.9548 65.5916 71.2075 65.5916 67.2112V56.77C65.5916 50.5091 60.498 45.4155 54.2371 45.4155Z" fill="black"/>
<path d="M45.4334 69.5644H29.6693V67.2618L29.6697 67.2524V50.1485L29.6693 50.1392V38.6386C29.6693 35.8306 27.5982 33.4972 24.9033 33.0858V30.6401C24.9033 29.2915 23.8062 28.1944 22.4576 28.1944H21.9234V16.8782C21.9234 15.1778 20.54 13.7944 18.8395 13.7944H10.8305C9.13008 13.7944 7.74668 15.1778 7.74668 16.8782V28.1942H7.2125C5.86387 28.1942 4.7668 29.2913 4.7668 30.6399V33.0878C2.36172 33.4599 0.403906 35.3819 0.0548825 37.8491C0.027927 38.0396 0.0387568 38.2335 0.0867531 38.4198C0.134749 38.6061 0.218972 38.7811 0.334612 38.9349C0.450251 39.0886 0.595043 39.2181 0.760719 39.3159C0.926395 39.4137 1.10971 39.4778 1.30019 39.5048C2.10176 39.6196 2.84238 39.0606 2.95586 38.2597C3.14199 36.9435 4.28594 35.9511 5.6168 35.9511H6.22813L6.23184 35.9513H23.4387L23.4424 35.9511H24.0523C25.5342 35.9511 26.7398 37.1567 26.7398 38.6386V48.6837H2.92969V43.5866C2.92969 43.1981 2.77536 42.8255 2.50064 42.5508C2.22593 42.2761 1.85334 42.1218 1.46484 42.1218C1.07634 42.1218 0.703754 42.2761 0.429042 42.5508C0.154331 42.8255 0 43.1981 0 43.5866V94.3827C0 97.48 2.51973 99.9999 5.61719 99.9999H6.17988C6.98887 99.9999 7.64473 99.3442 7.64473 98.5351C7.64473 97.7259 6.98887 97.0702 6.17988 97.0702H5.61719C4.13535 97.0702 2.92969 95.8645 2.92969 94.3827V68.7173H26.7395V69.5644H19.0881C13.426 69.5644 8.81973 74.1708 8.81973 79.8327V94.3575C8.81973 97.4688 11.3508 99.9999 14.4619 99.9999H50.0594C53.1705 99.9999 55.7016 97.4688 55.7016 94.3575V79.8327C55.7018 74.1708 51.0955 69.5644 45.4334 69.5644ZM10.6762 16.8782C10.6762 16.8374 10.6925 16.7982 10.7214 16.7693C10.7503 16.7404 10.7894 16.7242 10.8303 16.7241H18.8393C18.8801 16.7241 18.9194 16.7404 18.9483 16.7692C18.9772 16.7981 18.9935 16.8373 18.9936 16.8782V28.1942H10.6762V16.8782ZM21.9734 33.0214H7.69629V31.1239H21.9734V33.0214ZM2.92969 65.7876V51.6134H26.7395V65.7876H2.92969ZM11.7496 79.8327C11.7496 75.786 15.0418 72.494 19.0883 72.494H45.4334C49.4801 72.494 52.7721 75.786 52.7721 79.8327V80.5835H11.7496V79.8327ZM52.7723 94.3575C52.7721 95.8534 51.5553 97.0702 50.0596 97.0702H14.4621C12.9664 97.0702 11.7496 95.8534 11.7496 94.3575V83.5132H52.7723V94.3575Z" fill="black"/>
</svg>
