<svg width="80" height="100" viewBox="0 0 80 100" fill="none" xmlns="http://www.w3.org/2000/svg">
<path d="M60.0646 44.2328C60.0778 44.2332 60.0913 44.2344 60.1046 44.2348C60.2298 44.194 60.0157 44.2244 60.0646 44.2328ZM20.4247 44.234C20.5858 44.2356 20.2798 44.1846 20.4247 44.234Z" fill="black"/>
<path d="M18.71 47.1439V62.9265C18.71 65.485 20.7913 67.5662 23.3495 67.5662H45.3035C45.4965 67.5662 45.6876 67.5283 45.8659 67.4544C46.0442 67.3806 46.2062 67.2723 46.3427 67.1359C46.4791 66.9994 46.5874 66.8374 46.6612 66.6591C46.7351 66.4808 46.7731 66.2897 46.773 66.0967C46.7731 65.9037 46.7351 65.7126 46.6612 65.5343C46.5874 65.356 46.4791 65.194 46.3427 65.0575C46.2062 64.921 46.0442 64.8128 45.8659 64.739C45.6876 64.6651 45.4965 64.6271 45.3035 64.6271H23.3493C22.529 64.6271 21.8424 64.043 21.6836 63.2689C21.6366 63.0396 21.6489 63.2267 21.6489 59.5531H58.8623V62.9265C58.8623 63.8641 58.0995 64.6271 57.1619 64.6271H50.4629C50.2699 64.6271 50.0788 64.6651 49.9005 64.739C49.7222 64.8128 49.5602 64.921 49.4237 65.0575C49.2872 65.194 49.179 65.356 49.1052 65.5343C49.0313 65.7126 48.9933 65.9037 48.9934 66.0967C48.9933 66.2897 49.0313 66.4808 49.1052 66.6591C49.179 66.8374 49.2872 66.9994 49.4237 67.1359C49.5602 67.2723 49.7222 67.3806 49.9005 67.4544C50.0788 67.5283 50.2699 67.5662 50.4629 67.5662H57.1619C59.7202 67.5662 61.8014 65.485 61.8014 62.9265V47.1597C71.7204 46.3864 79.2019 37.8958 79.0595 28.4502C79.0597 28.4367 79.0601 28.4231 79.0601 28.4094C79.0601 16.7984 68.5296 7.90908 57.0147 9.97784C49.9332 -3.40113 30.8624 -3.26226 23.8778 10.0132C12.3248 7.81299 1.62769 16.6874 1.62769 28.4096C1.62769 28.4231 1.62827 28.4367 1.62827 28.4504C1.62827 28.4633 1.62769 28.4762 1.62769 28.4893C1.62769 38.261 9.15136 46.3073 18.71 47.1439ZM20.5829 12.6638C21.2139 12.6816 22.0688 12.7021 22.6905 12.7941C22.0514 14.7056 21.7262 16.7081 21.7278 18.7236C21.7278 19.1133 21.8826 19.4871 22.1582 19.7626C22.4338 20.0382 22.8075 20.193 23.1972 20.193C23.5869 20.193 23.9607 20.0382 24.2363 19.7626C24.5119 19.4871 24.6667 19.1133 24.6667 18.7236C24.6667 6.82216 37.2531 -0.585491 47.6027 4.65164C52.7959 7.29521 56.2451 12.6667 56.2451 18.7236C56.2451 19.1133 56.4 19.4871 56.6756 19.7627C56.9512 20.0383 57.3249 20.1931 57.7147 20.1931C58.1044 20.1931 58.4782 20.0383 58.7538 19.7627C59.0294 19.4871 59.1842 19.1133 59.1842 18.7236C59.1859 16.698 58.8576 14.6856 58.2123 12.7656C58.7651 12.6907 59.5485 12.6798 60.1051 12.6634C68.7976 12.6634 76.0982 19.7611 76.1202 28.449C76.0986 37.137 68.7974 44.2347 60.1043 44.2347C60.084 44.2347 60.0715 44.2339 60.0643 44.2327C57.8975 44.1675 55.5891 43.7081 53.6356 42.7919C53.2838 42.6336 52.8838 42.62 52.5221 42.754C52.1604 42.888 51.8658 43.1589 51.702 43.5081C51.5382 43.8574 51.5183 44.2571 51.6465 44.6209C51.7748 44.9847 52.0409 45.2835 52.3875 45.4528C54.4241 46.4106 56.6183 46.9891 58.8623 47.1599V56.6138H51.4555V52.0075C51.4555 51.8146 51.4175 51.6235 51.3437 51.4451C51.2698 51.2668 51.1616 51.1048 51.0251 50.9684C50.8886 50.8319 50.7266 50.7237 50.5483 50.6498C50.37 50.576 50.1789 50.538 49.9859 50.538C49.7929 50.538 49.6018 50.576 49.4235 50.6498C49.2452 50.7237 49.0832 50.8319 48.9468 50.9684C48.8103 51.1048 48.7021 51.2668 48.6282 51.4451C48.5544 51.6235 48.5164 51.8146 48.5164 52.0075V56.6138H41.4171V52.0075C41.4171 51.6178 41.2623 51.244 40.9867 50.9684C40.7111 50.6928 40.3374 50.538 39.9476 50.538C39.5579 50.538 39.1841 50.6928 38.9085 50.9684C38.6329 51.244 38.4781 51.6178 38.4781 52.0075V56.6138H31.3792V52.0075C31.3792 51.6178 31.2244 51.244 30.9488 50.9684C30.6732 50.6928 30.2994 50.538 29.9097 50.538C29.5199 50.538 29.1461 50.6928 28.8705 50.9684C28.595 51.244 28.4401 51.6178 28.4401 52.0075V56.6138H21.6491V47.1718C23.9541 47.0188 26.2101 46.4357 28.3007 45.4528C28.6473 45.2835 28.9134 44.9847 29.0417 44.6209C29.1699 44.2571 29.15 43.8574 28.9862 43.5081C28.8224 43.1589 28.5278 42.888 28.1661 42.754C27.8043 42.62 27.4044 42.6336 27.0526 42.7919C25.0403 43.7356 22.659 44.1933 20.4247 44.2341C11.8211 44.1477 4.58962 37.0483 4.56813 28.4492C4.58981 19.7615 11.8902 12.6638 20.5829 12.6638Z" fill="black"/>
<path d="M20.583 12.6638C20.7416 12.6638 20.44 12.7103 20.583 12.6638ZM60.1055 12.6636C60.2488 12.7103 59.9467 12.6636 60.1055 12.6636ZM78.9848 70.4754C74.6501 62.967 59.4289 67.8332 58.982 76.5143L41.0993 86.8386L23.7396 76.8162L23.9297 76.4871C25.2086 74.2717 24.4465 71.4287 22.2312 70.1496L10.5257 63.3912C10.3586 63.2947 10.1741 63.232 9.98275 63.2068C9.79141 63.1816 9.59699 63.1944 9.41057 63.2443C9.22415 63.2942 9.0494 63.3804 8.89628 63.4979C8.74317 63.6154 8.61469 63.7618 8.51819 63.929C8.42168 64.0961 8.35904 64.2806 8.33384 64.4719C8.30864 64.6633 8.32137 64.8577 8.37131 65.0441C8.42125 65.2305 8.50742 65.4053 8.62489 65.5584C8.74237 65.7115 8.88885 65.84 9.05598 65.9365L20.7617 72.6949C21.5736 73.1639 21.8529 74.2059 21.3842 75.0176L19.5433 78.2059L6.30597 70.5637C5.96844 70.3688 5.56732 70.316 5.19085 70.4169C4.81438 70.5177 4.49341 70.764 4.29854 71.1016C4.10366 71.4391 4.05086 71.8402 4.15173 72.2167C4.25261 72.5931 4.4989 72.9141 4.83643 73.109L18.0736 80.7512L16.2332 83.9393C15.764 84.751 14.7218 85.0305 13.9099 84.5618L2.20439 77.8037C2.03726 77.7072 1.85277 77.6446 1.66143 77.6194C1.47009 77.5942 1.27566 77.6069 1.08925 77.6569C0.902832 77.7068 0.728084 77.793 0.574983 77.9105C0.421881 78.028 0.293426 78.1745 0.196953 78.3416C0.100436 78.5088 0.0377862 78.6933 0.0125832 78.8846C-0.0126198 79.0759 0.000117365 79.2704 0.0500673 79.4568C0.100017 79.6432 0.186202 79.8179 0.303698 79.971C0.421193 80.1241 0.567699 80.2526 0.734847 80.3491C13.4111 87.6675 13.1039 87.7278 14.7525 87.7278C16.357 87.7278 17.9201 86.8956 18.7785 85.4091L18.9681 85.0805L32.1125 92.6692C30.1112 95.8712 32.4317 99.9763 36.1551 99.9763C37.7204 99.9763 38.4087 99.4111 41.0993 97.8578L43.6605 99.3365C47.9361 101.805 52.6966 96.8919 50.1052 92.6927L55.3992 89.7452C55.5678 89.6513 55.7163 89.5252 55.8361 89.3739C55.956 89.2226 56.0449 89.0493 56.0977 88.8636C56.1505 88.678 56.1663 88.4838 56.1441 88.2921C56.1218 88.1004 56.062 87.915 55.9681 87.7464C55.8743 87.5777 55.7481 87.4292 55.5969 87.3094C55.4456 87.1895 55.2722 87.1006 55.0866 87.0478C54.901 86.9949 54.7068 86.9792 54.515 87.0014C54.3233 87.0237 54.1379 87.0835 53.9693 87.1774L47.7163 90.6589L44.0382 88.5352L61.1894 78.633C61.4267 78.496 61.6209 78.2954 61.7502 78.0538C61.8795 77.8122 61.9386 77.5393 61.9209 77.2659C61.5168 70.9941 73.5569 66.9517 76.4389 71.9447C79.327 76.9463 69.7905 85.335 64.5717 81.8573C64.3437 81.7053 64.0779 81.6201 63.804 81.6112C63.5302 81.6024 63.2594 81.6702 63.0221 81.8071L58.2459 84.5645C57.9083 84.7594 57.6621 85.0804 57.5612 85.4568C57.4603 85.8333 57.5131 86.2344 57.708 86.572C57.9029 86.9095 58.2238 87.1558 58.6003 87.2567C58.9768 87.3575 59.3779 87.3047 59.7154 87.1098L63.7529 84.7788C71.5067 88.738 83.3144 77.9727 78.9848 70.4754ZM37.0684 96.7917C35.3782 97.7685 33.5223 95.7423 34.6606 94.1409L38.16 96.1615L37.0684 96.7917ZM47.8163 94.7308C48.1281 95.8923 47.2521 97.0378 46.0437 97.0378C45.413 97.0378 45.4345 96.9675 41.8362 94.8902C41.8362 94.8902 35.2819 91.1062 35.2303 91.0761L35.2299 91.0759L20.4375 82.5356L22.2701 79.3616C49.2679 94.949 47.5433 93.7107 47.8163 94.7308Z" fill="black"/>
</svg>
