<svg width="145" height="100" viewBox="0 0 145 100" fill="none" xmlns="http://www.w3.org/2000/svg">
<path d="M108.94 63.6363C98.914 63.6363 90.7579 71.7924 90.7579 81.8181C90.7579 91.8438 98.914 100 108.94 100C118.967 100 127.122 91.8438 127.122 81.8181C127.122 71.7924 118.965 63.6363 108.94 63.6363ZM108.94 90.9091C103.926 90.9091 99.8488 86.8317 99.8488 81.8181C99.8488 76.8046 103.926 72.7272 108.94 72.7272C113.953 72.7272 118.031 76.8046 118.031 81.8181C118.031 86.832 113.953 90.9091 108.94 90.9091ZM46.8186 63.6363C36.7929 63.6363 28.6367 71.7924 28.6367 81.8181C28.6367 91.8438 36.7929 100 46.8186 100C56.8443 100 65.0005 91.8438 65.0005 81.8181C65.0005 71.7924 56.8443 63.6363 46.8186 63.6363ZM46.8186 90.9091C41.805 90.9091 37.7277 86.8317 37.7277 81.8181C37.7277 76.8046 41.805 72.7272 46.8186 72.7272C51.8307 72.7272 55.9095 76.8046 55.9095 81.8181C55.9095 86.832 51.8321 90.9091 46.8186 90.9091ZM121.184 11.5941C120.805 10.8415 120.225 10.209 119.507 9.76699C118.79 9.32501 117.964 9.09096 117.122 9.09094H93.1821V18.1819H114.318L126.696 42.8L134.82 38.715L121.184 11.5941Z" fill="white"/>
<path d="M60.9092 77.4244H95.3031V86.5153H60.9092V77.4244ZM33.1817 77.4244H17.4243C14.9136 77.4244 12.879 79.4593 12.879 81.9697C12.879 84.4804 14.9139 86.515 17.4243 86.515H33.1819C35.6927 86.515 37.7273 84.4801 37.7273 81.9697C37.7273 79.459 35.6924 77.4244 33.1817 77.4244ZM143.288 49.6363L134.347 38.1211C133.923 37.5737 133.378 37.1306 132.756 36.826C132.134 36.5213 131.45 36.3631 130.758 36.3634H97.7273V4.54532C97.7273 2.03461 95.6924 0 93.182 0H17.4243C14.9136 0 12.879 2.03489 12.879 4.54532C12.879 7.05576 14.9139 9.09065 17.4243 9.09065H88.6364V40.9088C88.6364 43.4195 90.6713 45.4541 93.1817 45.4541H128.532L135.151 53.9813V77.4238H122.576C120.065 77.4238 118.03 79.4587 118.03 81.9691C118.03 84.4798 120.065 86.5145 122.576 86.5145H139.697C142.208 86.5145 144.242 84.4796 144.242 81.9691V52.4242C144.242 51.4151 143.906 50.4333 143.288 49.6363ZM32.8788 54.394H11.9696C9.45886 54.394 7.42426 56.4289 7.42426 58.9394C7.42426 61.4501 9.45915 63.4847 11.9696 63.4847H32.8785C35.3893 63.4847 37.4239 61.4498 37.4239 58.9394C37.4241 56.4289 35.3893 54.394 32.8788 54.394ZM43.3333 36.515H4.54533C2.03489 36.515 0 38.5499 0 41.0606C0 43.5713 2.03489 45.606 4.54533 45.606H43.3333C45.844 45.606 47.8786 43.5711 47.8786 41.0606C47.8786 38.5502 45.844 36.515 43.3333 36.515Z" fill="white"/>
<path d="M50.7571 18.6362H11.9692C9.45843 18.6362 7.42383 20.6711 7.42383 23.1816C7.42383 25.6923 9.45872 27.7269 11.9692 27.7269H50.7571C53.2678 27.7269 55.3024 25.692 55.3024 23.1816C55.3027 20.6711 53.2678 18.6362 50.7571 18.6362Z" fill="white"/>
</svg>
