<svg width="134" height="100" viewBox="0 0 134 100" fill="none" xmlns="http://www.w3.org/2000/svg">
<path d="M120.833 100H12.5C5.60719 100 0 94.3928 0 87.5V66.6666C0 64.3634 1.86355 62.4999 4.16668 62.4999C11.0595 62.4999 16.6667 56.8927 16.6667 49.9999C16.6667 43.107 11.0595 37.4998 4.16668 37.4998C1.86355 37.5001 0 35.6366 0 33.3334V12.5C0 5.60719 5.60719 0 12.5 0H120.833C127.726 0 133.333 5.60719 133.333 12.5V33.3334C133.333 35.6366 131.47 37.5001 129.166 37.5001C122.274 37.5001 116.666 43.1073 116.666 50.0001C116.666 56.893 122.274 62.5002 129.166 62.5002C131.47 62.5002 133.333 64.3637 133.333 66.6669V87.5002C133.333 94.3928 127.726 100 120.833 100ZM8.33336 70.4141V87.5C8.33336 89.7989 10.2011 91.6666 12.5 91.6666H120.833C123.132 91.6666 125 89.7989 125 87.5V70.4141C115.503 68.4774 108.333 60.0627 108.333 49.9999C108.333 39.9371 115.503 31.5226 125 29.5856V12.5C125 10.2011 123.132 8.33336 120.833 8.33336H12.5C10.2011 8.33336 8.33336 10.2011 8.33336 12.5V29.5859C17.8303 31.5226 25.0001 39.9373 25.0001 50.0001C25.0001 60.063 17.8303 68.4774 8.33336 70.4141Z" fill="white"/>
<path d="M50.2676 81.8131L75.2584 15.1704L83.061 18.0963L58.0702 84.739L50.2676 81.8131ZM46.9551 51.4028C40.0623 51.4028 34.4551 45.7956 34.4551 38.9028C34.4551 32.0099 40.0623 26.4027 46.9551 26.4027C53.848 26.4027 59.4551 32.0099 59.4551 38.9028C59.4551 45.7956 53.848 51.4028 46.9551 51.4028ZM46.9551 34.7361C44.6562 34.7361 42.7884 36.6038 42.7884 38.9028C42.7884 41.2017 44.6562 43.0695 46.9551 43.0695C49.254 43.0695 51.1218 41.2017 51.1218 38.9028C51.1218 36.6038 49.254 34.7361 46.9551 34.7361ZM90.0243 77.2442C83.1314 77.2442 77.5242 71.637 77.5242 64.7441C77.5242 57.8513 83.1314 52.2441 90.0243 52.2441C96.9171 52.2441 102.524 57.8513 102.524 64.7441C102.524 71.637 96.9171 77.2442 90.0243 77.2442ZM90.0243 60.5775C87.7253 60.5775 85.8576 62.4452 85.8576 64.7441C85.8576 67.0431 87.7253 68.9108 90.0243 68.9108C92.3232 68.9108 94.1909 67.0431 94.1909 64.7441C94.1909 62.4452 92.3232 60.5775 90.0243 60.5775Z" fill="white"/>
</svg>
