<svg width="100" height="100" viewBox="0 0 100 100" fill="none" xmlns="http://www.w3.org/2000/svg">
<path d="M3.32493 41.6683H4.92489V96.667C4.92489 97.551 5.27607 98.3988 5.90118 99.0239C6.52628 99.649 7.37411 100 8.25814 100H64.9234C65.8074 100 66.6553 99.649 67.2804 99.0239C67.9055 98.3988 68.2567 97.551 68.2567 96.667V67.4177C68.2567 66.9757 68.0811 66.5517 67.7685 66.2392C67.456 65.9266 67.032 65.7511 66.59 65.7511C66.148 65.7511 65.7241 65.9266 65.4115 66.2392C65.099 66.5517 64.9234 66.9757 64.9234 67.4177V96.667H59.9152V81.6673C59.9152 79.0152 58.8617 76.4717 56.9863 74.5964C55.111 72.7211 52.5675 71.6676 49.9154 71.6676C47.2633 71.6676 44.7199 72.7211 42.8446 74.5964C40.9692 76.4717 39.9157 79.0152 39.9157 81.6673V96.667H8.25814V41.6683H32.4075C32.8496 41.6683 33.2735 41.4927 33.586 41.1802C33.8986 40.8676 34.0742 40.4437 34.0742 40.0017C34.0742 39.5597 33.8986 39.1358 33.586 38.8232C33.2735 38.5106 32.8496 38.3351 32.4075 38.3351H3.3166L36.5824 13.7357L47.6322 21.9188C47.9876 22.1818 48.4329 22.2928 48.8701 22.2275C49.3074 22.1622 49.7008 21.9259 49.9638 21.5705C50.2268 21.2151 50.3378 20.7698 50.2725 20.3325C50.2072 19.8953 49.9708 19.5019 49.6155 19.2389L38.5674 11.0641C37.992 10.6418 37.297 10.4141 36.5833 10.4141C35.8696 10.4141 35.1745 10.6418 34.5992 11.0641L1.33331 35.6685C0.774206 36.0878 0.361045 36.6722 0.152242 37.3392C-0.0565603 38.0062 -0.0504408 38.7219 0.169736 39.3852C0.389912 40.0485 0.813007 40.6258 1.3792 41.0355C1.9454 41.4452 2.62605 41.6666 3.32493 41.6683ZM43.2489 81.6673C43.2489 79.8993 43.9513 78.2036 45.2015 76.9534C46.4517 75.7032 48.1474 75.0008 49.9154 75.0008C51.6835 75.0008 53.3792 75.7032 54.6294 76.9534C55.8796 78.2036 56.5819 79.8993 56.5819 81.6673V96.667H43.2489V81.6673Z" fill="black"/>
<path d="M14.9163 91.6669H31.5825C32.0245 91.6669 32.4484 91.4913 32.761 91.1787C33.0735 90.8662 33.2491 90.4423 33.2491 90.0002V73.334C33.2491 72.892 33.0735 72.4681 32.761 72.1555C32.4484 71.843 32.0245 71.6674 31.5825 71.6674H14.9163C14.4742 71.6674 14.0503 71.843 13.7378 72.1555C13.4252 72.4681 13.2496 72.892 13.2496 73.334V90.0002C13.2496 90.4423 13.4252 90.8662 13.7378 91.1787C14.0503 91.4913 14.4742 91.6669 14.9163 91.6669ZM16.5829 83.3337H21.5828V88.3336H16.5829V83.3337ZM24.916 88.3336V83.3337H29.9159V88.3336H24.916ZM29.9159 80.0005H24.916V75.0006H29.9159V80.0005ZM21.5828 75.0006V80.0005H16.5829V75.0006H21.5828ZM33.2491 48.3346C33.2491 47.8926 33.0735 47.4687 32.761 47.1561C32.4484 46.8436 32.0245 46.668 31.5825 46.668H14.9163C14.4742 46.668 14.0503 46.8436 13.7378 47.1561C13.4252 47.4687 13.2496 47.8926 13.2496 48.3346V65.0009C13.2496 65.4429 13.4252 65.8668 13.7378 66.1793C14.0503 66.4919 14.4742 66.6675 14.9163 66.6675H31.5825C32.0245 66.6675 32.4484 66.4919 32.761 66.1793C33.0735 65.8668 33.2491 65.4429 33.2491 65.0009V48.3346ZM29.9159 55.0011H24.916V50.0012H29.9159V55.0011ZM21.5828 50.0012V55.0011H16.5829V50.0012H21.5828ZM16.5829 58.3344H21.5828V63.3342H16.5829V58.3344ZM24.916 63.3342V58.3344H29.9159V63.3342H24.916ZM51.582 90.0002C52.024 90.0002 52.4479 89.8247 52.7605 89.5121C53.073 89.1995 53.2486 88.7756 53.2486 88.3336V85.0004C53.2486 84.5584 53.073 84.1344 52.7605 83.8219C52.4479 83.5093 52.024 83.3337 51.582 83.3337C51.14 83.3337 50.7161 83.5093 50.4035 83.8219C50.091 84.1344 49.9154 84.5584 49.9154 85.0004V88.3336C49.9154 88.7756 50.091 89.1995 50.4035 89.5121C50.7161 89.8247 51.14 90.0002 51.582 90.0002ZM52.2587 24.0302L51.0787 25.2102C50.6403 25.6509 50.3358 26.2068 50.2004 26.8135L40.0523 29.4884C39.7657 29.5632 39.5044 29.7134 39.2956 29.9234C37.224 31.9933 36.6057 36.1099 37.639 40.9365C37.7907 41.6398 37.9724 42.3398 38.1907 43.0347V43.0764C38.1907 43.0897 38.2223 43.1347 38.2323 43.1664C39.5854 47.5117 41.9746 51.4629 45.1942 54.6795C48.4137 57.8961 52.3671 60.2818 56.7135 61.6309C56.7385 61.6309 56.7552 61.6576 56.7819 61.6659C56.8085 61.6743 56.8185 61.6659 56.8385 61.6659C57.5285 61.8759 58.2235 62.0626 58.9218 62.2126C60.3551 62.5276 61.8151 62.6909 63.2817 62.7026C65.694 62.8774 68.0797 62.1077 69.9349 60.556C70.1449 60.3472 70.2951 60.0859 70.3699 59.7993L73.0365 49.6512C73.6431 49.5146 74.1998 49.2096 74.6414 48.7729L75.8197 47.593C77.5878 45.824 78.7414 43.5343 79.111 41.0607C79.4806 38.5871 79.0467 36.0602 77.873 33.8516L96.7059 16.7271C98.1556 15.4095 99.1681 13.6806 99.608 11.7717C100.048 9.86275 99.894 7.86502 99.1671 6.04595C98.4402 4.22688 97.1749 2.6733 95.5407 1.59322C93.9064 0.513141 91.9812 -0.0418821 90.0227 0.00246466C88.7215 0.0288538 87.4394 0.321514 86.2556 0.862399C85.0718 1.40328 84.0113 2.18093 83.1396 3.14739L66.0067 21.9853C63.7982 20.809 61.2704 20.3728 58.7955 20.7409C56.3205 21.109 54.0291 22.2621 52.2587 24.0302ZM67.2766 58.4577C66.07 59.3093 63.3634 59.7593 59.6201 58.9577C59.5152 58.9343 59.3818 58.8993 59.2685 58.8727L60.9351 52.7495C60.9926 52.5383 61.0079 52.3178 60.9801 52.1007C60.9524 51.8836 60.8821 51.6741 60.7734 51.4841C60.6647 51.2942 60.5196 51.1275 60.3465 50.9936C60.1733 50.8597 59.9755 50.7612 59.7643 50.7037C59.5531 50.6463 59.3327 50.631 59.1155 50.6587C58.8984 50.6865 58.6889 50.7567 58.4989 50.8654C58.309 50.9741 58.1423 51.1192 58.0084 51.2924C57.8745 51.4655 57.776 51.6633 57.7185 51.8745L56.0819 57.8744C53.4076 56.8259 50.9354 55.3214 48.7754 53.4278L54.3669 47.8363C54.6705 47.522 54.8385 47.101 54.8347 46.664C54.8309 46.227 54.6556 45.809 54.3466 45.5C54.0376 45.191 53.6196 45.0157 53.1826 45.0119C52.7457 45.0081 52.3247 45.1761 52.0103 45.4797L46.4188 51.0712C44.5252 48.9112 43.0207 46.4391 41.9722 43.7647L47.9804 42.1281C48.1916 42.0706 48.3895 41.9721 48.5626 41.8382C48.7357 41.7043 48.8808 41.5376 48.9895 41.3477C49.0983 41.1577 49.1685 40.9482 49.1962 40.7311C49.224 40.514 49.2087 40.2935 49.1512 40.0823C49.0938 39.8711 48.9953 39.6733 48.8614 39.5001C48.7275 39.327 48.5608 39.1819 48.3708 39.0732C48.1809 38.9645 47.9713 38.8943 47.7542 38.8665C47.5371 38.8388 47.3167 38.8541 47.1055 38.9115L40.9823 40.5781C40.9556 40.4648 40.9206 40.3315 40.8973 40.2265C40.0956 36.4816 40.5473 33.7766 41.3973 32.57L51.1637 30.0017L69.8566 48.6946L67.2766 58.4577ZM73.4698 45.243L72.2932 46.423L53.4353 27.5668L54.6153 26.3885C56.178 24.8257 58.2976 23.9478 60.5076 23.9478C62.7177 23.9478 64.8372 24.8257 66.4 26.3885L73.4698 33.4583C75.0325 35.0211 75.9105 37.1406 75.9105 39.3507C75.9105 41.5607 75.0325 43.6803 73.4698 45.243ZM85.5962 5.39067C86.1681 4.7629 86.8615 4.25766 87.6343 3.90551C88.4071 3.55337 89.2433 3.36163 90.0923 3.34189C90.9413 3.32215 91.7855 3.47483 92.5739 3.79068C93.3622 4.10654 94.0783 4.57901 94.6788 5.17952C95.2793 5.78003 95.7517 6.4961 96.0676 7.28443C96.3835 8.07276 96.5361 8.91697 96.5164 9.76599C96.4967 10.615 96.3049 11.4512 95.9528 12.224C95.6006 12.9968 95.0954 13.6902 94.4676 14.2621L75.8831 31.1567L68.7016 23.9752L85.5962 5.39067ZM74.8564 64.1675C74.8564 65.7146 75.471 67.1983 76.5649 68.2922C77.6589 69.3862 79.1426 70.0007 80.6896 70.0007C82.2367 70.0007 83.7204 69.3862 84.8143 68.2922C85.9082 67.1983 86.5228 65.7146 86.5228 64.1675C86.5228 62.6205 85.9082 61.1368 84.8143 60.0429C83.7204 58.9489 82.2367 58.3344 80.6896 58.3344C79.1426 58.3344 77.6589 58.9489 76.5649 60.0429C75.471 61.1368 74.8564 62.6205 74.8564 64.1675ZM83.1896 64.1675C83.1896 64.4958 83.1249 64.8209 82.9993 65.1242C82.8736 65.4275 82.6895 65.7031 82.4574 65.9353C82.2252 66.1674 81.9496 66.3516 81.6463 66.4772C81.343 66.6028 81.0179 66.6675 80.6896 66.6675C80.3613 66.6675 80.0362 66.6028 79.7329 66.4772C79.4296 66.3516 79.154 66.1674 78.9219 65.9353C78.6898 65.7031 78.5056 65.4275 78.38 65.1242C78.2544 64.8209 78.1897 64.4958 78.1897 64.1675C78.1897 63.5045 78.4531 62.8687 78.9219 62.3998C79.3907 61.931 80.0266 61.6676 80.6896 61.6676C81.3527 61.6676 81.9885 61.931 82.4574 62.3998C82.9262 62.8687 83.1896 63.5045 83.1896 64.1675ZM52.357 13.3355C53.9041 13.3355 55.3877 12.7209 56.4817 11.627C57.5756 10.533 58.1902 9.04934 58.1902 7.50228C58.1902 5.95522 57.5756 4.47153 56.4817 3.37759C55.3877 2.28366 53.9041 1.66909 52.357 1.66909C50.8099 1.66909 49.3262 2.28366 48.2323 3.37759C47.1384 4.47153 46.5238 5.95522 46.5238 7.50228C46.5238 9.04934 47.1384 10.533 48.2323 11.627C49.3262 12.7209 50.8099 13.3355 52.357 13.3355ZM52.357 5.00234C53.02 5.00234 53.6559 5.26573 54.1247 5.73456C54.5935 6.20339 54.8569 6.83925 54.8569 7.50228C54.8569 8.1653 54.5935 8.80117 54.1247 9.27C53.6559 9.73883 53.02 10.0022 52.357 10.0022C51.694 10.0022 51.0581 9.73883 50.5893 9.27C50.1204 8.80117 49.8571 8.1653 49.8571 7.50228C49.8571 6.83925 50.1204 6.20339 50.5893 5.73456C51.0581 5.26573 51.694 5.00234 52.357 5.00234ZM89.8561 40.0015C89.4141 40.0015 88.9901 40.1771 88.6776 40.4896C88.365 40.8022 88.1894 41.2261 88.1894 41.6681V45.0014C88.1894 45.4434 88.365 45.8673 88.6776 46.1798C88.9901 46.4924 89.4141 46.668 89.8561 46.668C90.2981 46.668 90.722 46.4924 91.0346 46.1798C91.3471 45.8673 91.5227 45.4434 91.5227 45.0014V41.6681C91.5227 41.2261 91.3471 40.8022 91.0346 40.4896C90.722 40.1771 90.2981 40.0015 89.8561 40.0015ZM88.1894 51.6679V55.0011C88.1894 55.4431 88.365 55.867 88.6776 56.1796C88.9901 56.4921 89.4141 56.6677 89.8561 56.6677C90.2981 56.6677 90.722 56.4921 91.0346 56.1796C91.3471 55.867 91.5227 55.4431 91.5227 55.0011V51.6679C91.5227 51.2258 91.3471 50.8019 91.0346 50.4894C90.722 50.1768 90.2981 50.0012 89.8561 50.0012C89.4141 50.0012 88.9901 50.1768 88.6776 50.4894C88.365 50.8019 88.1894 51.2258 88.1894 51.6679ZM96.5226 46.668H93.1893C92.7473 46.668 92.3234 46.8436 92.0108 47.1561C91.6983 47.4687 91.5227 47.8926 91.5227 48.3346C91.5227 48.7766 91.6983 49.2005 92.0108 49.5131C92.3234 49.8256 92.7473 50.0012 93.1893 50.0012H96.5226C96.9646 50.0012 97.3885 49.8256 97.7011 49.5131C98.0136 49.2005 98.1892 48.7766 98.1892 48.3346C98.1892 47.8926 98.0136 47.4687 97.7011 47.1561C97.3885 46.8436 96.9646 46.668 96.5226 46.668ZM88.1894 48.3346C88.1894 47.8926 88.0139 47.4687 87.7013 47.1561C87.3887 46.8436 86.9648 46.668 86.5228 46.668H83.1896C82.7475 46.668 82.3236 46.8436 82.0111 47.1561C81.6985 47.4687 81.5229 47.8926 81.5229 48.3346C81.5229 48.7766 81.6985 49.2005 82.0111 49.5131C82.3236 49.8256 82.7475 50.0012 83.1896 50.0012H86.5228C86.9648 50.0012 87.3887 49.8256 87.7013 49.5131C88.0139 49.2005 88.1894 48.7766 88.1894 48.3346ZM22.0127 14.5138C22.3271 14.8174 22.7481 14.9853 23.185 14.9816C23.622 14.9778 24.04 14.8025 24.349 14.4935C24.6581 14.1845 24.8333 13.7665 24.8371 13.3295C24.8409 12.8925 24.6729 12.4715 24.3694 12.1572L21.8694 9.65723C21.5551 9.35364 21.1341 9.18565 20.6971 9.18945C20.2601 9.19324 19.8421 9.36852 19.5331 9.67753C19.2241 9.98653 19.0488 10.4045 19.045 10.8415C19.0412 11.2785 19.2092 11.6995 19.5128 12.0138L22.0127 14.5138ZM14.5129 7.01396C14.8273 7.31755 15.2483 7.48553 15.6852 7.48174C16.1222 7.47794 16.5402 7.30266 16.8492 6.99366C17.1582 6.68465 17.3335 6.26664 17.3373 5.82966C17.3411 5.39267 17.1731 4.97168 16.8695 4.65735L14.3696 2.15741C14.0553 1.85382 13.6343 1.68584 13.1973 1.68963C12.7603 1.69343 12.3423 1.86871 12.0333 2.17771C11.7243 2.48672 11.549 2.90473 11.5452 3.34171C11.5414 3.7787 11.7094 4.19969 12.013 4.51402L14.5129 7.01396ZM13.1913 15.0021C13.6333 15.002 14.0571 14.8263 14.3696 14.5138L16.8695 12.0138C17.0287 11.8601 17.1557 11.6762 17.243 11.4729C17.3304 11.2695 17.3764 11.0508 17.3783 10.8295C17.3802 10.6082 17.338 10.3888 17.2542 10.184C17.1704 9.97913 17.0467 9.79305 16.8902 9.63657C16.7337 9.48008 16.5476 9.35633 16.3428 9.27253C16.138 9.18873 15.9185 9.14656 15.6972 9.14849C15.4759 9.15041 15.2572 9.19639 15.0539 9.28373C14.8506 9.37108 14.6667 9.49805 14.5129 9.65723L12.013 12.1572C11.78 12.3902 11.6213 12.6872 11.557 13.0104C11.4928 13.3337 11.5258 13.6687 11.6519 13.9732C11.778 14.2777 11.9915 14.538 12.2656 14.7211C12.5396 14.9042 12.8617 15.002 13.1913 15.0021ZM20.6911 7.50228C21.1331 7.50218 21.5569 7.32653 21.8694 7.01396L24.3694 4.51402C24.6729 4.19969 24.8409 3.7787 24.8371 3.34171C24.8333 2.90473 24.6581 2.48672 24.349 2.17771C24.04 1.86871 23.622 1.69343 23.185 1.68963C22.7481 1.68584 22.3271 1.85382 22.0127 2.15741L19.5128 4.65735C19.2798 4.89043 19.1211 5.18736 19.0568 5.51061C18.9926 5.83386 19.0256 6.1689 19.1517 6.4734C19.2778 6.77789 19.4914 7.03815 19.7654 7.22129C20.0394 7.40443 20.3615 7.50221 20.6911 7.50228Z" fill="black"/>
</svg>
