<svg width="47" height="100" viewBox="0 0 47 100" fill="none" xmlns="http://www.w3.org/2000/svg">
<path d="M31.6667 23.3333V15C31.6667 14.558 31.4911 14.134 31.1785 13.8215C30.866 13.5089 30.442 13.3333 30 13.3333H28.3333V10H29.835L38.0065 11.6344C38.3699 11.707 38.7473 11.6564 39.0788 11.4906L45.7454 8.15729C46.0297 8.01515 46.2675 7.79466 46.4306 7.52185C46.5937 7.24903 46.6754 6.93526 46.666 6.61753C46.6567 6.29981 46.5567 5.99139 46.3778 5.72863C46.1989 5.46588 45.9486 5.25976 45.6565 5.13458L33.9898 0.134583C33.7823 0.0458132 33.559 2.98469e-05 33.3333 0H13.3333C12.8913 0 12.4674 0.175595 12.1548 0.488155C11.8423 0.800716 11.6667 1.22464 11.6667 1.66667V8.33333C11.6667 8.77536 11.8423 9.19928 12.1548 9.51184C12.4674 9.8244 12.8913 10 13.3333 10H18.3333V13.3333H16.6667C16.2246 13.3333 15.8007 13.5089 15.4882 13.8215C15.1756 14.134 15 14.558 15 15V23.3333C11.0231 23.3378 7.21041 24.9196 4.39833 27.7317C1.58625 30.5437 0.00446645 34.3565 0 38.3333V91.6667C0.00248136 93.876 0.881252 95.9942 2.44352 97.5565C4.00578 99.1187 6.12396 99.9975 8.33333 100H38.3333C40.5427 99.9975 42.6609 99.1187 44.2232 97.5565C45.7854 95.9942 46.6642 93.876 46.6667 91.6667V38.3333C46.6622 34.3565 45.0804 30.5437 42.2683 27.7317C39.4563 24.9196 35.6435 23.3378 31.6667 23.3333ZM15 3.33333H32.9913L41.0404 6.78312L38.0994 8.25354L30.3269 6.69896C30.2192 6.67749 30.1098 6.66668 30 6.66667H15V3.33333ZM21.6667 10H25V13.3333H21.6667V10ZM18.3333 16.6667H28.3333V23.3333H18.3333V16.6667ZM43.3333 78.3333H3.33333V45H43.3333V78.3333ZM38.3333 96.6667H8.33333C7.00773 96.6651 5.73685 96.1378 4.79951 95.2005C3.86216 94.2631 3.33488 92.9923 3.33333 91.6667V81.6667H43.3333V91.6667C43.3318 92.9923 42.8045 94.2631 41.8672 95.2005C40.9298 96.1378 39.6589 96.6651 38.3333 96.6667ZM43.3333 41.6667H3.33333V38.3333C3.33681 35.2402 4.56709 32.2748 6.75426 30.0876C8.94143 27.9004 11.9069 26.6701 15 26.6667H31.6667C34.7598 26.6701 37.7252 27.9004 39.9124 30.0876C42.0996 32.2748 43.3299 35.2402 43.3333 38.3333V41.6667Z" fill="black"/>
<path d="M11.6667 66.6668H18.3333V73.3335C18.3333 73.7755 18.5089 74.1994 18.8215 74.512C19.134 74.8246 19.558 75.0002 20 75.0002H26.6667C27.1087 75.0002 27.5326 74.8246 27.8452 74.512C28.1577 74.1994 28.3333 73.7755 28.3333 73.3335V66.6668H35C35.442 66.6668 35.866 66.4912 36.1785 66.1787C36.4911 65.8661 36.6667 65.4422 36.6667 65.0002V58.3335C36.6667 57.8915 36.4911 57.4675 36.1785 57.155C35.866 56.8424 35.442 56.6668 35 56.6668H28.3333V50.0002C28.3333 49.5581 28.1577 49.1342 27.8452 48.8217C27.5326 48.5091 27.1087 48.3335 26.6667 48.3335H20C19.558 48.3335 19.134 48.5091 18.8215 48.8217C18.5089 49.1342 18.3333 49.5581 18.3333 50.0002V56.6668H11.6667C11.2246 56.6668 10.8007 56.8424 10.4882 57.155C10.1756 57.4675 10 57.8915 10 58.3335V65.0002C10 65.4422 10.1756 65.8661 10.4882 66.1787C10.8007 66.4912 11.2246 66.6668 11.6667 66.6668ZM13.3333 60.0002H20C20.442 60.0002 20.866 59.8246 21.1785 59.512C21.4911 59.1994 21.6667 58.7755 21.6667 58.3335V51.6668H25V58.3335C25 58.7755 25.1756 59.1994 25.4882 59.512C25.8007 59.8246 26.2246 60.0002 26.6667 60.0002H33.3333V63.3335H26.6667C26.2246 63.3335 25.8007 63.5091 25.4882 63.8216C25.1756 64.1342 25 64.5581 25 65.0002V71.6668H21.6667V65.0002C21.6667 64.5581 21.4911 64.1342 21.1785 63.8216C20.866 63.5091 20.442 63.3335 20 63.3335H13.3333V60.0002Z" fill="black"/>
</svg>
