<svg width="155" height="155" viewBox="0 0 155 155" fill="none" xmlns="http://www.w3.org/2000/svg">
<path d="M91.5909 56.3646C91.5909 48.5935 85.2711 42.2737 77.5 42.2737C69.7289 42.2737 63.4091 48.5935 63.4091 56.3646C63.4091 64.1358 69.7289 70.4555 77.5 70.4555C85.2711 70.4555 91.5909 64.1358 91.5909 56.3646ZM70.4545 56.3646C70.4545 52.4791 73.6144 49.3192 77.5 49.3192C81.3856 49.3192 84.5455 52.4791 84.5455 56.3646C84.5455 60.2502 81.3856 63.4101 77.5 63.4101C73.6144 63.4101 70.4545 60.2502 70.4545 56.3646ZM151.477 133.865H137.386V69.5044L142.364 73.1575C142.889 73.5434 143.511 73.7759 144.161 73.8293C144.811 73.8826 145.462 73.7547 146.044 73.4597C146.625 73.1647 147.113 72.7142 147.454 72.1583C147.794 71.6024 147.974 70.963 147.972 70.3111L147.937 52.6975C147.936 52.1453 147.806 51.601 147.556 51.1084C147.306 50.6159 146.945 50.1888 146.5 49.8617L133.864 40.5934V3.52373C133.864 2.58944 133.492 1.69342 132.832 1.03279C132.171 0.372146 131.275 0.00100236 130.341 0.00100236H109.205C108.27 0.00100236 107.374 0.372146 106.714 1.03279C106.053 1.69342 105.682 2.58944 105.682 3.52373V19.9185L79.4622 0.684411C78.8566 0.238614 78.124 -0.00126309 77.372 5.00194e-06C76.62 0.00127309 75.8883 0.24362 75.2842 0.691457L8.45455 50.1505C8.01093 50.479 7.65069 50.907 7.40287 51.4002C7.15505 51.8934 7.02659 52.4379 7.02784 52.9899L7.06307 70.6035C7.06484 71.255 7.24727 71.8933 7.59007 72.4474C7.93287 73.0014 8.42261 73.4496 9.00485 73.742C9.58708 74.0344 10.239 74.1596 10.8881 74.1036C11.5373 74.0477 12.1582 73.8129 12.6818 73.4252L17.6136 69.7757V133.865H3.52273C2.58844 133.865 1.69242 134.236 1.03178 134.896C0.371143 135.557 0 136.453 0 137.387V151.478C0 152.413 0.371143 153.309 1.03178 153.969C1.69242 154.63 2.58844 155.001 3.52273 155.001H151.477C152.412 155.001 153.308 154.63 153.968 153.969C154.629 153.309 155 152.413 155 151.478V137.387C155 136.453 154.629 135.557 153.968 134.896C153.308 134.236 152.412 133.865 151.477 133.865ZM112.727 24.6601V7.04646H126.818V35.4255L112.653 25.0335C112.667 24.9032 112.727 24.794 112.727 24.6601ZM14.0944 63.6179L14.0768 54.7547L77.3873 7.90248L140.895 54.4905L140.913 63.3537L79.4974 18.298C78.8918 17.8523 78.1592 17.6124 77.4072 17.6136C76.6553 17.6149 75.9235 17.8573 75.3194 18.3051L14.0944 63.6179ZM31.7045 147.956H7.04545V140.91H31.7045V147.956ZM66.9318 147.956H38.75V91.5919C38.75 89.6474 40.3317 88.0692 42.2727 88.0692H63.4091C65.3501 88.0692 66.9318 89.6474 66.9318 91.5919V147.956ZM63.4091 81.0237H42.2727C36.4461 81.0237 31.7045 85.7653 31.7045 91.5919V133.865H24.6591V64.562L77.426 25.5126L130.341 64.333V133.865H73.9773V91.5919C73.9773 85.7653 69.2357 81.0237 63.4091 81.0237ZM147.955 147.956H73.9773V140.91H147.955V147.956ZM84.5455 84.5465V109.206C84.5455 110.14 84.9166 111.036 85.5772 111.696C86.2379 112.357 87.1339 112.728 88.0682 112.728H116.25C117.184 112.728 118.08 112.357 118.741 111.696C119.402 111.036 119.773 110.14 119.773 109.206V84.5465C119.773 83.6122 119.402 82.7161 118.741 82.0555C118.08 81.3949 117.184 81.0237 116.25 81.0237H88.0682C87.1339 81.0237 86.2379 81.3949 85.5772 82.0555C84.9166 82.7161 84.5455 83.6122 84.5455 84.5465ZM91.5909 88.0692H112.727V105.683H91.5909V88.0692Z" fill="black"/>
</svg>
