<svg width="167" height="212" viewBox="0 0 167 212" fill="none" xmlns="http://www.w3.org/2000/svg">
<path d="M83.249 211.686C83.249 211.686 112.214 212.047 140.808 175.019C164.037 144.939 166.496 102.495 166.496 35.9695C166.496 34.9091 166.092 33.8885 165.366 33.1157C164.64 32.3429 163.646 31.8761 162.588 31.8105C110.625 28.5865 86.369 1.41046 86.369 1.41046C85.9781 0.96709 85.4972 0.612009 84.9585 0.36882C84.4197 0.125631 83.8354 -9.45382e-05 83.2443 5.33359e-08C82.6532 9.46449e-05 82.0689 0.126008 81.5302 0.36937C80.9915 0.612731 80.5108 0.967965 80.12 1.41146C80.12 1.41146 55.87 28.5865 3.909 31.8105C2.85054 31.8761 1.85694 32.3429 1.13064 33.1156C0.404344 33.8884 1.34623e-06 34.909 0 35.9695C0 102.494 2.457 144.94 25.688 175.019C54.283 212.047 83.246 211.686 83.246 211.686H83.249Z" fill="#FC776D"/>
<path d="M65.752 88.3475H37.367C36.8145 88.3475 36.2845 88.5669 35.8937 88.9575C35.5029 89.3481 35.2833 89.8779 35.283 90.4305V121.257C35.283 122.407 36.216 123.34 37.367 123.34H65.752V151.725C65.752 152.876 66.685 153.808 67.835 153.808H98.662C99.812 153.808 100.745 152.876 100.745 151.725V123.34H129.13C129.682 123.34 130.212 123.121 130.603 122.73C130.994 122.34 131.213 121.81 131.213 121.257V90.4305C131.213 89.2805 130.281 88.3475 129.13 88.3475H100.745V59.9625C100.745 59.4099 100.526 58.88 100.135 58.4892C99.7444 58.0984 99.2145 57.8787 98.662 57.8784H67.835C66.685 57.8784 65.752 58.8115 65.752 59.9625V88.3475Z" fill="#FBFAF9"/>
</svg>
