<svg width="94" height="100" viewBox="0 0 94 100" fill="none" xmlns="http://www.w3.org/2000/svg">
<path d="M21.4824 24.6084C20.4043 24.6084 19.5293 25.4834 19.5293 26.5615C19.5293 27.6396 20.4043 28.5146 21.4824 28.5146C22.5605 28.5146 23.4355 27.6396 23.4355 26.5615C23.4355 25.4834 22.5605 24.6084 21.4824 24.6084ZM39.0595 61.1298H33.2006V55.2709C33.2006 54.1923 32.326 53.3177 31.2474 53.3177C30.1689 53.3177 29.2945 54.1923 29.2945 55.2709V61.1298H23.4355C22.357 61.1298 21.4824 62.0045 21.4824 63.0828C21.4824 64.1611 22.357 65.0359 23.4355 65.0359H29.2945V70.8949C29.2945 71.9734 30.1691 72.848 31.2474 72.848C32.3258 72.848 33.2006 71.9734 33.2006 70.8949V65.0359H39.0595C40.1381 65.0359 41.0127 64.1613 41.0127 63.0828C41.0127 62.0043 40.1383 61.1298 39.0595 61.1298Z" fill="black"/>
<path d="M91.7728 62.8874C87.4554 55.4097 77.9093 52.8505 70.4302 57.1689L62.497 61.749V44.7888C62.497 42.6921 61.8036 40.6115 60.5441 38.9298L50.779 25.9101V20.366C53.0521 19.5597 54.6851 17.389 54.6851 14.8428V5.85898C54.6847 2.62832 52.0564 0 48.8257 0H13.6713C10.4406 0 7.8121 2.62832 7.8121 5.85898V14.843C7.8121 17.3888 9.44511 19.5599 11.7182 20.3662V25.9103L1.95234 38.9308C0.693359 40.6117 0 42.6921 0 44.7888V82.613C0 87.9976 4.38066 92.378 9.76503 92.378H41.1521C45.5312 99.7185 54.9738 102.175 62.3755 97.9013L86.0544 84.23C93.4675 79.9491 96.1118 70.406 91.7728 62.8874ZM11.7182 5.85898C11.7182 4.78203 12.5943 3.90586 13.6711 3.90586H48.8255C49.9025 3.90586 50.7787 4.78203 50.7787 5.85898V14.843C50.7787 15.9199 49.9025 16.7959 48.8255 16.7959H13.6713C12.5943 16.7959 11.7183 15.9197 11.7183 14.843L11.7182 5.85898ZM5.07812 41.2732L15.2336 27.733C15.4871 27.3949 15.6242 26.9837 15.6242 26.5611V20.7021H46.8726V24.6082H29.2955C28.217 24.6082 27.3424 25.4828 27.3424 26.5613C27.3424 27.6398 28.217 28.5144 29.2955 28.5144H47.8492L57.4181 41.2726C58.0435 42.1076 58.432 43.1066 58.5494 44.1386H3.94765C4.06484 43.1064 4.45332 42.1074 5.07812 41.2732ZM9.76522 88.472C6.53456 88.472 3.90625 85.8437 3.90625 82.613V80.6405H39.3896C38.7703 83.1728 38.7744 85.8774 39.4835 88.4722H9.76522V88.472ZM40.9214 76.7538H3.90605V48.0443H58.5908V64.0038L46.7511 70.8402C44.2826 72.2661 42.2873 74.296 40.9214 76.7538ZM60.4228 94.5185C54.8179 97.755 47.6558 95.8409 44.4171 90.2321C41.163 84.5692 43.1351 77.4396 48.7046 74.2226L59.3056 68.1019L71.0238 88.3978L60.4228 94.5185ZM84.1013 80.8474L74.4066 86.4448L62.6882 66.1486L72.3831 60.5517C77.9917 57.3138 85.1513 59.2312 88.3899 64.8402C91.6429 70.4773 89.6647 77.6347 84.1013 80.8474Z" fill="black"/>
</svg>
