<svg width="100" height="100" viewBox="0 0 100 100" fill="none" xmlns="http://www.w3.org/2000/svg">
<path d="M97.7682 41.6158C88.5254 37.9187 84.9672 31.668 82.1083 26.6455C79.8307 22.6445 77.6795 18.8652 73.2956 18.0707C68.6809 17.2338 62.8684 19.9564 52.7348 27.9309V17.0742C56.1448 15.8648 58.5942 12.6084 58.5942 8.78906C58.5942 3.94277 54.6514 0 49.8051 0C44.9588 0 41.0161 3.94277 41.0161 8.78906C41.0161 12.6084 43.4655 15.8648 46.8754 17.0742V27.9311C36.7417 19.9564 30.9299 17.2344 26.3145 18.0707C21.9305 18.8652 19.7794 22.6443 17.5018 26.6455C14.6428 31.668 11.085 37.9188 1.84205 41.6156C1.20977 41.8684 0.685301 42.3336 0.358783 42.9311C0.0322657 43.5287 -0.075904 44.2213 0.0528667 44.89C0.181637 45.5586 0.539305 46.1615 1.06439 46.5951C1.58948 47.0286 2.24919 47.2657 2.93013 47.2656H46.8754V53.125H38.0864C33.2401 53.125 29.2973 57.0678 29.2973 61.9141C29.2973 66.7604 33.2401 70.7031 38.0864 70.7031H46.8754V76.5625H43.9458C39.0995 76.5625 35.1567 80.5053 35.1567 85.3516C35.1567 90.1979 39.0995 94.1406 43.9458 94.1406H46.8754V97.0703C46.8754 98.6883 48.1872 100 49.8051 100C51.4231 100 52.7348 98.6883 52.7348 97.0703V94.1406H55.6645C57.2825 94.1406 58.5942 92.8289 58.5942 91.2109C58.5942 89.593 57.2825 88.2812 55.6645 88.2812H52.7348V82.4219H55.6645C60.5108 82.4219 64.4536 78.4791 64.4536 73.6328C64.4536 68.7865 60.5108 64.8438 55.6645 64.8438H52.7348V58.9844H61.5239C66.3702 58.9844 70.3129 55.0416 70.3129 50.1953C70.3133 49.1972 70.1429 48.2063 69.809 47.2656H96.6801C97.361 47.2656 98.0206 47.0285 98.5456 46.5949C99.0706 46.1614 99.4282 45.5585 99.5569 44.89C99.6857 44.2214 99.5775 43.5289 99.2511 42.9314C98.9247 42.3339 98.4004 41.8687 97.7682 41.6158ZM46.8754 88.2812H43.9458C42.3303 88.2812 41.0161 86.967 41.0161 85.3516C41.0161 83.7361 42.3303 82.4219 43.9458 82.4219H46.8754V88.2812ZM46.8754 64.8438H38.0864C36.471 64.8438 35.1567 63.5295 35.1567 61.9141C35.1567 60.2986 36.471 58.9844 38.0864 58.9844H46.8754V64.8438ZM46.8754 41.4062H40.5122C40.846 40.4656 41.0165 39.4747 41.0161 38.4766C41.0161 36.8586 39.7044 35.5469 38.0864 35.5469C36.4684 35.5469 35.1567 36.8586 35.1567 38.4766C35.1567 40.092 33.8424 41.4062 32.227 41.4062H29.5424C31.5645 38.8283 32.7424 35.9408 33.5415 33.5438C34.053 32.0088 33.2235 30.3496 31.6887 29.8379C30.153 29.3262 28.4946 30.1557 27.9827 31.6906C26.2159 36.9902 23.744 40.008 20.0047 41.4062H13.5106C18.0508 37.525 20.5651 33.1084 22.594 29.5441C24.5577 26.0943 25.7473 24.1283 27.3592 23.8361C31.5831 23.0697 42.1588 31.5516 46.8754 35.4564V41.4062ZM55.6645 70.7031C57.2799 70.7031 58.5942 72.0174 58.5942 73.6328C58.5942 75.2482 57.2799 76.5625 55.6645 76.5625H52.7348V70.7031H55.6645ZM49.8051 11.7188C48.1897 11.7188 46.8754 10.4045 46.8754 8.78906C46.8754 7.17363 48.1897 5.85938 49.8051 5.85938C51.4206 5.85938 52.7348 7.17363 52.7348 8.78906C52.7348 10.4045 51.4206 11.7188 49.8051 11.7188ZM61.5239 53.125H52.7348V47.2656H61.5239C63.1393 47.2656 64.4536 48.5799 64.4536 50.1953C64.4536 51.8107 63.1393 53.125 61.5239 53.125ZM79.6053 41.4064C75.8661 40.0082 73.394 36.9904 71.6274 31.6908C71.1157 30.1557 69.4561 29.326 67.9215 29.8379C66.3866 30.3496 65.5571 32.0088 66.0686 33.5438C66.8676 35.941 68.0454 38.8285 70.0676 41.4064H67.3833C65.7678 41.4064 64.4536 40.0922 64.4536 38.4768C64.4536 36.8588 63.1419 35.5471 61.5239 35.5471C59.9059 35.5471 58.5942 36.8588 58.5942 38.4768C58.5938 39.4749 58.7642 40.4658 59.0981 41.4064H52.7348V35.4566C57.4512 31.552 68.0303 23.0709 72.2508 23.8363C73.8629 24.1285 75.0526 26.0945 77.0163 29.5443C79.045 33.1086 81.5594 37.5252 86.0997 41.4064H79.6053Z" fill="black"/>
</svg>
