<svg width="200" height="214" viewBox="0 0 200 214" fill="none" xmlns="http://www.w3.org/2000/svg">
<path d="M2.09308 189.525C2.80789 189.971 3.65672 190.24 4.50555 190.24C5.62243 190.24 6.73931 189.837 7.58814 188.989C13.664 183.181 20.1866 177.284 27.1559 171.163L6.42658 204.58C5.62243 205.876 5.53308 207.484 6.20321 208.869C6.87334 210.254 8.16892 211.192 9.68788 211.371L30.1045 213.828C30.2832 213.828 30.4619 213.873 30.6406 213.873C32.2936 213.873 33.8125 212.979 34.572 211.505L61.6452 161.022H184.279C186.736 161.022 188.746 159.012 188.746 156.554C188.746 154.097 186.736 152.087 184.279 152.087H126.335L112.754 136.987V127.828C130.981 118.625 144.384 98.7446 152.783 68.276L174.406 54.4267L176.729 63.0937C177.131 64.5233 178.203 65.6849 179.633 66.1763C180.33 66.4083 181.075 66.4645 181.8 66.3398C182.524 66.2151 183.207 65.9134 183.787 65.4615C199.915 52.9077 204.383 34.7696 194.822 21.099C191.248 9.03663 182.447 1.62054 170.027 0.235602C147.868 -2.26621 115.211 15.5145 102.746 36.5566C98.7704 37.0033 94.8836 38.3436 91.3543 40.6667C59.8582 61.3067 20.678 123.048 0.21672 184.342C-0.408734 186.308 0.350748 188.453 2.09308 189.525ZM28.1388 204.625L17.6848 203.374L49.2255 152.578C53.1122 149.406 57.133 146.145 61.2878 142.884L28.1388 204.625ZM114.317 152.132H101.719L107.884 144.939L114.317 152.132ZM103.819 135.959L89.9693 152.132H66.4255L76.6561 133.055C80.1408 133.502 83.5361 133.815 86.8421 133.815C92.8732 133.815 98.547 133.01 103.863 131.447V135.959H103.819ZM183.475 53.7119L181.464 46.2511C181.464 46.2065 181.42 46.2065 181.42 46.1618V46.0724C179.767 40.8454 179.901 36.6013 181.822 33.5187C183.564 30.7041 186.513 29.1405 188.702 28.3363C193.348 36.9587 190.042 46.3852 183.475 53.7119ZM169.089 9.17065C176.684 10.0195 182 13.7722 184.994 20.2501C181.554 21.6351 177.22 24.1369 174.316 28.7384C171.412 33.3847 170.698 38.9691 172.038 45.4023L146.573 61.7088C145.635 62.2896 144.965 63.2277 144.652 64.2999C133.617 105.803 113.915 125.594 84.7423 124.746C90.3267 120.546 96.0452 116.257 102.032 111.879C114.853 102.453 124.325 89.5415 128.703 75.5134C129.864 71.8054 130.624 68.1867 131.026 64.702C132.098 54.7841 127.541 45.4023 119.098 40.22C117.132 39.0137 115.077 38.1202 112.932 37.4948C125.084 20.8756 151.443 7.16027 169.089 9.17065ZM96.2685 48.1722C99.1724 46.2958 102.389 45.313 105.65 45.313C108.688 45.313 111.682 46.1171 114.407 47.8148C119.946 51.2101 122.85 57.1519 122.136 63.7192C121.823 66.6677 121.153 69.7056 120.17 72.8776C116.372 85.1186 108.063 96.4215 96.76 104.731C76.8795 119.295 59.1434 132.966 43.2837 145.966L43.239 146.011C33.053 154.321 23.6266 162.362 14.9149 170.18C35.7336 116.481 69.106 65.9082 96.2685 48.1722Z" fill="black"/>
<path d="M152.963 31.5103C153.454 31.5103 153.946 31.421 154.482 31.2423L158.95 29.6339C161.273 28.7851 162.479 26.2386 161.675 23.9155C160.826 21.5924 158.324 20.3862 155.956 21.1903L151.489 22.7986C149.166 23.6475 147.959 26.194 148.764 28.5171C149.434 30.3488 151.131 31.5103 152.963 31.5103Z" fill="black"/>
</svg>
