<svg width="100" height="100" viewBox="0 0 100 100" fill="none" xmlns="http://www.w3.org/2000/svg">
<path d="M63.5153 79.1375C62.6868 79.1375 61.8923 78.8084 61.3065 78.2226C60.7207 77.6368 60.3916 76.8423 60.3916 76.0138C60.3916 75.1854 60.7207 74.3909 61.3065 73.8051C61.8923 73.2192 62.6868 72.8901 63.5153 72.8901C64.3437 72.8901 65.1383 73.2192 65.7241 73.8051C66.3099 74.3909 66.639 75.1854 66.639 76.0138C66.639 76.8423 66.3099 77.6368 65.7241 78.2226C65.1383 78.8084 64.3437 79.1375 63.5153 79.1375ZM72.9114 91.649C70.1 91.649 67.4553 90.5536 65.4728 88.5627C65.1092 88.1671 64.9126 87.6462 64.9241 87.109C64.9356 86.5717 65.1543 86.0597 65.5346 85.68C65.9148 85.3003 66.4271 85.0823 66.9644 85.0715C67.5017 85.0608 68.0223 85.2581 68.4174 85.6223C70.8164 88.0255 75.0063 88.0255 77.4053 85.6223C77.8004 85.2581 78.3211 85.0608 78.8583 85.0715C79.3956 85.0823 79.9079 85.3003 80.2882 85.68C80.6684 86.0597 80.8871 86.5717 80.8987 87.109C80.9102 87.6462 80.7136 88.1671 80.3499 88.5627C79.3762 89.5442 78.2172 90.3224 76.9403 90.8522C75.6633 91.382 74.2939 91.6528 72.9114 91.649Z" fill="white"/>
<path d="M47.899 72.8777C47.4633 72.8756 47.0393 72.737 46.6865 72.4814C46.3338 72.2257 46.0701 71.8658 45.9326 71.4524C45.7951 71.039 45.7907 70.5929 45.9201 70.1769C46.0494 69.7609 46.306 69.3959 46.6537 69.1334C47.016 68.8627 55.779 62.4612 72.9135 62.4612C90.048 62.4612 98.7652 68.8627 99.1317 69.1376C99.5741 69.4684 99.8669 69.9614 99.9458 70.5082C100.025 71.0549 99.8832 71.6106 99.5523 72.053C99.2215 72.4954 98.7285 72.7882 98.1817 72.8671C97.635 72.946 97.0793 72.8045 96.6369 72.4737C96.5578 72.4153 88.5486 66.6303 72.9177 66.6303C57.2825 66.6303 49.2234 72.4195 49.1443 72.4778C48.7799 72.7355 48.3452 72.8751 47.899 72.8777Z" fill="white"/>
<path d="M72.911 100C66.1055 100 60.4329 97.6802 56.0431 93.1029C50.941 87.7926 47.8965 79.4919 47.8965 70.8955C47.8965 70.7206 47.9173 70.5499 47.959 70.3874L50.9744 56.7265C51.4043 54.803 52.3684 53.04 53.7558 51.6401C55.1431 50.2402 56.8974 49.2603 58.8169 48.8131L70.587 46.1143C72.1194 45.7643 73.711 45.7643 75.2434 46.1143L86.9635 48.809C88.8823 49.2557 90.6358 50.2356 92.0219 51.6357C93.408 53.0358 94.3702 54.7991 94.7977 56.7223L97.8297 70.4416C97.8628 70.5892 97.8796 70.7401 97.8797 70.8914V71.5203C97.8797 77.8926 95.7515 86.9055 89.7873 93.0988C85.3725 97.6802 79.6957 100 72.911 100ZM52.0614 71.1205C52.1197 76.9763 53.9773 84.9397 59.046 90.2208C62.6195 93.9484 67.2884 95.8351 72.911 95.8351C78.5253 95.8351 83.19 93.9442 86.7802 90.2166C91.8906 84.9147 93.7106 77.0846 93.7106 71.5286V71.1288L90.7286 57.6303C90.4722 56.4756 89.8947 55.4168 89.0628 54.576C88.2309 53.7352 87.1783 53.1467 86.0264 52.8781L74.3063 50.1834C73.3863 49.9752 72.4315 49.9752 71.5116 50.1834L59.7457 52.8823C58.5937 53.1515 57.5409 53.7402 56.7084 54.5808C55.8759 55.4215 55.2974 56.4798 55.0393 57.6344L52.0614 71.1205Z" fill="white"/>
<path d="M82.3655 79.1375C81.537 79.1375 80.7425 78.8084 80.1567 78.2226C79.5709 77.6368 79.2418 76.8423 79.2418 76.0138C79.2418 75.1854 79.5709 74.3908 80.1567 73.805C80.7425 73.2192 81.537 72.8901 82.3655 72.8901C83.1939 72.8901 83.9884 73.2192 84.5743 73.805C85.1601 74.3908 85.4892 75.1854 85.4892 76.0138C85.4892 76.8423 85.1601 77.6368 84.5743 78.2226C83.9884 78.8084 83.1939 79.1375 82.3655 79.1375ZM39.5667 83.2983H35.4018C34.8495 83.2983 34.3198 83.0789 33.9293 82.6883C33.5387 82.2978 33.3193 81.7681 33.3193 81.2158V27.0718C33.3195 26.7638 33.388 26.4597 33.5199 26.1814C33.6518 25.9031 33.8437 25.6575 34.0819 25.4623C34.3202 25.2671 34.5987 25.1272 34.8975 25.0526C35.1963 24.978 35.508 24.9706 35.81 25.031L98.2838 37.5258C98.7557 37.6201 99.1804 37.8749 99.4856 38.247C99.7909 38.619 99.9578 39.0853 99.9581 39.5666V47.8964C99.9581 48.4487 99.7387 48.9784 99.3482 49.3689C98.9576 49.7595 98.4279 49.9789 97.8756 49.9789C97.3233 49.9789 96.7937 49.7595 96.4031 49.3689C96.0126 48.9784 95.7932 48.4487 95.7932 47.8964V41.2742L37.4843 29.6124V79.1333H39.5667C40.119 79.1333 40.6487 79.3527 41.0392 79.7433C41.4298 80.1338 41.6492 80.6635 41.6492 81.2158C41.6492 81.7681 41.4298 82.2978 41.0392 82.6883C40.6487 83.0789 40.119 83.2983 39.5667 83.2983Z" fill="white"/>
<path d="M35.4018 83.2987H6.24738C2.80299 83.2987 0 80.4957 0 77.0513V59.5795C0 56.664 2.0658 54.0984 4.91461 53.4778L34.9604 46.9056C35.4886 46.8152 36.0314 46.9319 36.4758 47.2315C36.9202 47.5311 37.232 47.9905 37.3463 48.5142C37.4605 49.0378 37.3685 49.5853 37.0894 50.0429C36.8102 50.5004 36.3654 50.8327 35.8475 50.9706L5.80174 57.5428C5.33852 57.6466 4.92429 57.9047 4.62692 58.2747C4.32954 58.6447 4.16665 59.1047 4.16492 59.5795V77.0513C4.16492 77.6036 4.38432 78.1333 4.77486 78.5238C5.1654 78.9144 5.69508 79.1338 6.24738 79.1338H35.4018C35.9541 79.1338 36.4838 79.3532 36.8744 79.7437C37.2649 80.1342 37.4843 80.6639 37.4843 81.2162C37.4843 81.7685 37.2649 82.2982 36.8744 82.6888C36.4838 83.0793 35.9541 83.2987 35.4018 83.2987Z" fill="white"/>
<path d="M22.9072 66.6388H14.5774C14.0251 66.6388 13.4954 66.4194 13.1049 66.0288C12.7143 65.6383 12.4949 65.1086 12.4949 64.5563C12.4949 64.004 12.7143 63.4743 13.1049 63.0838C13.4954 62.6933 14.0251 62.4739 14.5774 62.4739H22.9072C23.4595 62.4739 23.9892 62.6933 24.3797 63.0838C24.7703 63.4743 24.9897 64.004 24.9897 64.5563C24.9897 65.1086 24.7703 65.6383 24.3797 66.0288C23.9892 66.4194 23.4595 66.6388 22.9072 66.6388ZM22.9072 74.9686H14.5774C14.0251 74.9686 13.4954 74.7492 13.1049 74.3587C12.7143 73.9682 12.4949 73.4385 12.4949 72.8862C12.4949 72.3339 12.7143 71.8042 13.1049 71.4136C13.4954 71.0231 14.0251 70.8037 14.5774 70.8037H22.9072C23.4595 70.8037 23.9892 71.0231 24.3797 71.4136C24.7703 71.8042 24.9897 72.3339 24.9897 72.8862C24.9897 73.4385 24.7703 73.9682 24.3797 74.3587C23.9892 74.7492 23.4595 74.9686 22.9072 74.9686ZM6.32667 57.3802L6.16424 57.376C5.6136 57.3334 5.10241 57.0739 4.74312 56.6545C4.38382 56.235 4.20586 55.6901 4.24837 55.1394L8.33833 1.9242C8.37628 1.4005 8.61145 0.91068 8.99639 0.553569C9.38133 0.196458 9.88738 -0.00136651 10.4125 7.10575e-06H22.9072C23.9984 7.10575e-06 24.9022 0.837157 24.9814 1.92004L28.7298 50.6871C28.7723 51.2378 28.5943 51.7827 28.235 52.2022C27.8758 52.6216 27.3646 52.8811 26.8139 52.9237C25.731 52.9653 24.6648 52.1573 24.5815 51.0078L20.9789 4.16493H12.3408L8.39663 55.456C8.35683 55.9782 8.12167 56.4663 7.73803 56.823C7.35439 57.1796 6.85046 57.3785 6.32667 57.3802Z" fill="white"/>
<path d="M27.0721 4.16492H6.2475C5.6952 4.16492 5.16552 3.94552 4.77498 3.55498C4.38444 3.16445 4.16504 2.63476 4.16504 2.08246C4.16504 1.53016 4.38444 1.00048 4.77498 0.609939C5.16552 0.219402 5.6952 0 6.2475 0L27.0721 0C27.6244 0 28.1541 0.219402 28.5446 0.609939C28.9352 1.00048 29.1546 1.53016 29.1546 2.08246C29.1546 2.63476 28.9352 3.16445 28.5446 3.55498C28.1541 3.94552 27.6244 4.16492 27.0721 4.16492Z" fill="white"/>
</svg>
