<svg width="141" height="121" viewBox="0 0 141 121" fill="none" xmlns="http://www.w3.org/2000/svg">
<path d="M8.29412 111.971V45.6176C8.29412 42.244 12.1073 40.2825 14.8506 42.244L37.3235 58.2931V45.6176C37.3235 42.244 41.1368 40.2825 43.88 42.244L66.3529 58.2931V45.6176C66.3529 42.1756 70.3009 40.2327 73.0297 42.3311L95.4135 59.5497L99.5398 3.84018C99.6173 2.79613 100.087 1.82001 100.854 1.10774C101.621 0.395468 102.63 -0.000252978 103.676 1.21335e-07H120.265C121.312 -0.000252978 122.32 0.395468 123.087 1.10774C123.854 1.82001 124.324 2.79613 124.401 3.84018L132.409 111.971H136.853C137.953 111.971 139.008 112.408 139.785 113.185C140.563 113.963 141 115.018 141 116.118C141 117.218 140.563 118.272 139.785 119.05C139.008 119.828 137.953 120.265 136.853 120.265H4.14706C3.04719 120.265 1.99237 119.828 1.21465 119.05C0.436921 118.272 0 117.218 0 116.118C0 115.018 0.436921 113.963 1.21465 113.185C1.99237 112.408 3.04719 111.971 4.14706 111.971H8.29412ZM16.5882 111.971H91.5318L94.6815 69.4508L74.6471 54.0403V66.3529C74.6471 69.7266 70.8338 71.6881 68.0906 69.7266L45.6176 53.6775V66.3529C45.6176 69.7266 41.8044 71.6881 39.0611 69.7266L16.5882 53.6775V111.971ZM99.8487 111.971H124.092L116.414 8.29412H107.527L99.8487 111.971ZM31.1029 87.0882C30.0031 87.0882 28.9483 86.6513 28.1705 85.8736C27.3928 85.0959 26.9559 84.041 26.9559 82.9412C26.9559 81.8413 27.3928 80.7865 28.1705 80.0088C28.9483 79.231 30.0031 78.7941 31.1029 78.7941H35.25C36.3499 78.7941 37.4047 79.231 38.1824 80.0088C38.9601 80.7865 39.3971 81.8413 39.3971 82.9412C39.3971 84.041 38.9601 85.0959 38.1824 85.8736C37.4047 86.6513 36.3499 87.0882 35.25 87.0882H31.1029ZM31.1029 103.676C30.0031 103.676 28.9483 103.24 28.1705 102.462C27.3928 101.684 26.9559 100.629 26.9559 99.5294C26.9559 98.4295 27.3928 97.3747 28.1705 96.597C28.9483 95.8193 30.0031 95.3824 31.1029 95.3824H35.25C36.3499 95.3824 37.4047 95.8193 38.1824 96.597C38.9601 97.3747 39.3971 98.4295 39.3971 99.5294C39.3971 100.629 38.9601 101.684 38.1824 102.462C37.4047 103.24 36.3499 103.676 35.25 103.676H31.1029ZM51.8382 87.0882C50.7384 87.0882 49.6835 86.6513 48.9058 85.8736C48.1281 85.0959 47.6912 84.041 47.6912 82.9412C47.6912 81.8413 48.1281 80.7865 48.9058 80.0088C49.6835 79.231 50.7384 78.7941 51.8382 78.7941H55.9853C57.0852 78.7941 58.14 79.231 58.9177 80.0088C59.6954 80.7865 60.1324 81.8413 60.1324 82.9412C60.1324 84.041 59.6954 85.0959 58.9177 85.8736C58.14 86.6513 57.0852 87.0882 55.9853 87.0882H51.8382ZM51.8382 103.676C50.7384 103.676 49.6835 103.24 48.9058 102.462C48.1281 101.684 47.6912 100.629 47.6912 99.5294C47.6912 98.4295 48.1281 97.3747 48.9058 96.597C49.6835 95.8193 50.7384 95.3824 51.8382 95.3824H55.9853C57.0852 95.3824 58.14 95.8193 58.9177 96.597C59.6954 97.3747 60.1324 98.4295 60.1324 99.5294C60.1324 100.629 59.6954 101.684 58.9177 102.462C58.14 103.24 57.0852 103.676 55.9853 103.676H51.8382ZM72.5735 87.0882C71.4737 87.0882 70.4188 86.6513 69.6411 85.8736C68.8634 85.0959 68.4265 84.041 68.4265 82.9412C68.4265 81.8413 68.8634 80.7865 69.6411 80.0088C70.4188 79.231 71.4737 78.7941 72.5735 78.7941H76.7206C77.8205 78.7941 78.8753 79.231 79.653 80.0088C80.4307 80.7865 80.8676 81.8413 80.8676 82.9412C80.8676 84.041 80.4307 85.0959 79.653 85.8736C78.8753 86.6513 77.8205 87.0882 76.7206 87.0882H72.5735ZM72.5735 103.676C71.4737 103.676 70.4188 103.24 69.6411 102.462C68.8634 101.684 68.4265 100.629 68.4265 99.5294C68.4265 98.4295 68.8634 97.3747 69.6411 96.597C70.4188 95.8193 71.4737 95.3824 72.5735 95.3824H76.7206C77.8205 95.3824 78.8753 95.8193 79.653 96.597C80.4307 97.3747 80.8676 98.4295 80.8676 99.5294C80.8676 100.629 80.4307 101.684 79.653 102.462C78.8753 103.24 77.8205 103.676 76.7206 103.676H72.5735Z" fill="white"/>
</svg>
