<svg width="512" height="455" viewBox="0 0 512 455" fill="none" xmlns="http://www.w3.org/2000/svg">
<path d="M478.914 312.195C476.925 312.195 475.017 312.985 473.611 314.392C472.204 315.799 471.414 317.706 471.414 319.695V439.265H316.82V297.325C316.82 287.672 308.969 279.82 299.32 279.82H212.68C203.031 279.82 195.18 287.676 195.18 297.324V439.266H40.5859V319.696C40.5859 317.707 39.7958 315.8 38.3892 314.393C36.9827 312.986 35.0751 312.196 33.0859 312.196C31.0968 312.196 29.1892 312.986 27.7826 314.393C26.3761 315.8 25.5859 317.707 25.5859 319.696V442.766C25.5859 449.106 30.7459 454.266 37.0859 454.266H474.914C481.254 454.266 486.414 449.106 486.414 442.766V319.696C486.414 317.707 485.624 315.8 484.217 314.393C482.811 312.986 480.903 312.196 478.914 312.196V312.195ZM210.18 439.265V297.325C210.18 296.662 210.444 296.026 210.912 295.556C211.381 295.086 212.017 294.822 212.68 294.82H299.32C300.7 294.82 301.82 295.945 301.82 297.324V439.266L210.18 439.265Z" fill="black"/>
<path d="M443.285 409.633C452.09 409.633 459.254 402.469 459.254 393.664V311.82C459.254 303.016 452.09 295.855 443.285 295.855H350.47C341.665 295.855 334.501 303.015 334.501 311.82V393.664C334.501 402.469 341.665 409.633 350.47 409.633H443.285ZM349.5 393.664V311.82C349.5 311.29 349.934 310.855 350.469 310.855H443.285C443.82 310.855 444.254 311.289 444.254 311.82V393.664C444.254 393.921 444.152 394.168 443.97 394.35C443.789 394.531 443.542 394.633 443.285 394.633H350.47C350.213 394.633 349.967 394.531 349.785 394.35C349.603 394.168 349.501 393.921 349.501 393.664H349.5ZM161.531 409.633C170.336 409.633 177.5 402.469 177.5 393.664V311.82C177.5 303.016 170.336 295.855 161.531 295.855H68.7151C59.9101 295.855 52.7461 303.015 52.7461 311.82V393.664C52.7461 402.469 59.9101 409.633 68.7151 409.633H161.531ZM67.7461 393.664V311.82C67.7461 311.29 68.1801 310.855 68.7151 310.855H161.531C162.066 310.855 162.5 311.289 162.5 311.82V393.664C162.5 393.921 162.398 394.168 162.216 394.35C162.035 394.531 161.788 394.633 161.531 394.633H68.7151C68.4581 394.633 68.2116 394.531 68.0299 394.35C67.8482 394.168 67.7461 393.921 67.7461 393.664Z" fill="black"/>
<path d="M489.96 110.57C489.96 102.559 496.48 96.043 504.5 96.043C506.489 96.043 508.397 95.2528 509.803 93.8463C511.21 92.4398 512 90.5321 512 88.543V70.191C512 68.2019 511.21 66.2942 509.803 64.8877C508.397 63.4812 506.489 62.691 504.5 62.691H380.691C378.702 62.691 376.794 63.4812 375.388 64.8877C373.981 66.2942 373.191 68.2019 373.191 70.191C373.191 74.336 376.547 77.691 380.691 77.691H497V82.008C486.73 84.703 478.625 92.805 475.926 103.07H357.938V36.492C357.938 16.372 341.565 0 321.445 0H190.56C170.435 0 154.067 16.371 154.067 36.492V62.692H7.5C5.51088 62.692 3.60322 63.4822 2.1967 64.8887C0.790176 66.2952 0 68.2029 0 70.192L0 88.543C0 90.5321 0.790176 92.4398 2.1967 93.8463C3.60322 95.2528 5.51088 96.043 7.5 96.043C15.52 96.043 22.04 102.559 22.04 110.57C22.0393 111.854 22.3681 113.117 22.9951 114.237C23.6221 115.357 24.5263 116.298 25.621 116.969V168.195H12.125C5.781 168.195 0.621 173.355 0.621 179.695V220.535C0.621 226.875 5.781 232.035 12.125 232.035H25.621V289.75C25.621 291.739 26.4112 293.647 27.8177 295.053C29.2242 296.46 31.1319 297.25 33.121 297.25C35.1101 297.25 37.0178 296.46 38.4243 295.053C39.8308 293.647 40.621 291.739 40.621 289.75V232.035H472V289.762C472 291.751 472.79 293.659 474.197 295.065C475.603 296.472 477.511 297.262 479.5 297.262C481.489 297.262 483.397 296.472 484.803 295.065C486.21 293.659 487 291.751 487 289.762V232.035H500.496C506.84 232.035 512 226.875 512 220.535V179.695C512 173.355 506.84 168.195 500.496 168.195H487V116.543C487.921 115.843 488.667 114.94 489.18 113.904C489.694 112.867 489.961 111.726 489.96 110.57ZM169.064 36.492C169.064 24.641 178.708 15 190.556 15H321.44C333.292 15 342.933 24.64 342.933 36.492V118.324C342.933 130.176 333.292 139.816 321.44 139.816H190.56C178.708 139.816 169.067 130.176 169.067 118.324V36.492H169.064ZM497 217.035H15.621V183.195H497V217.035ZM40.621 168.195V118.07H131.571C135.715 118.07 139.071 114.715 139.071 110.57C139.071 108.581 138.281 106.673 136.874 105.267C135.468 103.86 133.56 103.07 131.571 103.07H36.073C33.375 92.805 25.27 84.703 15 82.008V77.69H154.063V118.327C154.063 138.448 170.433 154.819 190.555 154.819H321.44C341.565 154.819 357.933 138.449 357.933 118.327V118.073H471.995V168.194L40.621 168.195ZM227 359.543H221C219.011 359.543 217.103 360.333 215.697 361.74C214.29 363.146 213.5 365.054 213.5 367.043C213.5 369.032 214.29 370.94 215.697 372.346C217.103 373.753 219.011 374.543 221 374.543H227C228.989 374.543 230.897 373.753 232.303 372.346C233.71 370.94 234.5 369.032 234.5 367.043C234.5 365.054 233.71 363.146 232.303 361.74C230.897 360.333 228.989 359.543 227 359.543Z" fill="black"/>
<path d="M202.277 44.9336H211.469L220.899 90.0116C222.727 98.7456 230.531 105.09 239.457 105.09H283.992C291.832 105.09 298.961 100.16 301.73 92.8276L316.437 53.8946C317.127 52.0699 317.363 50.1051 317.126 48.1688C316.89 46.2326 316.187 44.3827 315.078 42.7779C313.969 41.1731 312.487 39.8613 310.76 38.955C309.032 38.0487 307.111 37.575 305.16 37.5746H242.172C240.183 37.5746 238.275 38.3648 236.869 39.7713C235.462 41.1778 234.672 43.0855 234.672 45.0746C234.672 47.0637 235.462 48.9714 236.869 50.3779C238.275 51.7844 240.183 52.5746 242.172 52.5746H300.902L287.7 87.5256C287.414 88.2768 286.907 88.9237 286.246 89.3812C285.585 89.8387 284.801 90.0853 283.997 90.0886H239.458C238.55 90.0845 237.671 89.7699 236.966 89.1972C236.261 88.6244 235.773 87.8278 235.583 86.9396L226.114 41.6856C224.689 34.8736 218.606 29.9326 211.646 29.9326H202.282C201.297 29.9322 200.322 30.1259 199.412 30.5027C198.502 30.8795 197.675 31.4319 196.978 32.1284C196.282 32.825 195.729 33.6519 195.352 34.562C194.976 35.4721 194.782 36.4476 194.782 37.4326C194.782 41.5726 198.138 44.9326 202.278 44.9326L202.277 44.9336ZM240.75 111.383H238.75C237.765 111.382 236.79 111.576 235.88 111.953C234.97 112.329 234.143 112.882 233.446 113.578C232.75 114.275 232.197 115.102 231.82 116.012C231.444 116.922 231.25 117.898 231.25 118.883C231.25 120.872 232.04 122.779 233.447 124.186C234.853 125.592 236.761 126.383 238.75 126.383H240.75C242.739 126.383 244.647 125.592 246.054 124.186C247.46 122.779 248.25 120.872 248.25 118.883C248.25 114.738 244.895 111.383 240.75 111.383ZM273.25 111.383H271.25C270.265 111.382 269.29 111.576 268.38 111.953C267.47 112.329 266.643 112.882 265.946 113.578C265.25 114.275 264.697 115.102 264.32 116.012C263.944 116.922 263.75 117.898 263.75 118.883C263.75 120.872 264.54 122.779 265.947 124.186C267.353 125.592 269.261 126.383 271.25 126.383H273.25C275.239 126.383 277.147 125.592 278.554 124.186C279.96 122.779 280.75 120.872 280.75 118.883C280.75 114.738 277.395 111.383 273.25 111.383Z" fill="black"/>
</svg>
