<svg width="92" height="100" viewBox="0 0 92 100" fill="none" xmlns="http://www.w3.org/2000/svg">
<path d="M90.0034 21.6637H83.3364C82.8944 21.6637 82.4705 21.8393 82.1579 22.1519C81.8453 22.4645 81.6697 22.8884 81.6697 23.3305V24.9972C81.6697 24.5552 81.4941 24.1312 81.1815 23.8186C80.869 23.5061 80.445 23.3305 80.003 23.3305H75.0028C74.5792 23.3295 74.1711 23.49 73.8615 23.7791C73.5519 24.0683 73.364 24.4645 73.3361 24.8872L73.2211 26.6639H70.0026V23.3305C70.0026 22.8884 69.827 22.4645 69.5144 22.1519C69.2019 21.8393 68.7779 21.6637 68.3359 21.6637H61.669C61.2269 21.6637 60.803 21.8393 60.4904 22.1519C60.1778 22.4645 60.0022 22.8884 60.0022 23.3305V33.3308C60.0022 33.7729 60.1778 34.1968 60.4904 34.5094C60.803 34.822 61.2269 34.9976 61.669 34.9976H68.3359C68.7779 34.9976 69.2019 34.822 69.5144 34.5094C69.827 34.1968 70.0026 33.7729 70.0026 33.3308V29.9974H73.0027L72.0927 43.6329C71.9435 45.3548 70.4976 46.6738 68.7692 46.6647H58.3355V45.9496C58.3343 45.6351 58.2441 45.3274 58.0754 45.062C57.9067 44.7965 57.6664 44.5842 57.3821 44.4496C55.1249 43.3952 52.7318 42.6603 50.2719 42.2662C50.0048 42.2279 49.7325 42.2553 49.4785 42.3462C48.561 42.0666 47.6207 41.868 46.6684 41.7528V37.206C47.1627 36.9532 47.6413 36.671 48.1018 36.361C53.702 32.4425 58.3355 28.5073 58.3355 20.0387V18.3303C58.3315 15.8228 57.8151 13.3427 56.8179 11.042C55.8208 8.74137 54.364 6.66877 52.537 4.95145C46.0398 -1.08919 36.1693 -1.66754 29.0111 3.57307C21.7716 2.27052 14.8468 7.08341 13.5443 14.3231C13.4053 15.0955 13.3349 15.8787 13.3338 16.6636V41.6645C13.3338 42.1065 13.5094 42.5305 13.822 42.843C14.1346 43.1556 14.5585 43.3312 15.0006 43.3312C21.3736 43.342 27.5042 40.8894 32.1112 36.486C32.5065 36.7466 32.9148 36.9869 33.3346 37.206V41.7528C32.382 41.8657 31.4411 42.062 30.5228 42.3395C30.2693 42.2489 29.9976 42.2214 29.7311 42.2595C27.2711 42.6537 24.8781 43.3885 22.6208 44.4429C22.3366 44.5776 22.0963 44.7899 21.9276 45.0553C21.7589 45.3207 21.6687 45.6285 21.6675 45.943V45.998C15.3645 53.0782 11.8155 62.1875 11.6671 71.6656C11.6671 76.2374 11.8854 81.4993 13.2388 84.9994H10.0004V81.666C10.0004 81.2239 9.82477 80.8 9.5122 80.4874C9.19963 80.1749 8.77569 79.9993 8.33364 79.9993H1.66673C1.22468 79.9993 0.800746 80.1749 0.488174 80.4874C0.175602 80.8 0 81.2239 0 81.666V91.6664C0 92.1084 0.175602 92.5323 0.488174 92.8449C0.800746 93.1575 1.22468 93.3331 1.66673 93.3331H8.33364C8.77569 93.3331 9.19963 93.1575 9.5122 92.8449C9.82477 92.5323 10.0004 92.1084 10.0004 91.6664V88.3329H19.5291C17.6596 91.9385 16.6785 95.9386 16.6673 100H20.0007C20.0093 97.1326 20.5754 94.2943 21.6675 91.643V91.6664C21.6675 92.1084 21.8431 92.5323 22.1556 92.8449C22.4682 93.1575 22.8922 93.3331 23.3342 93.3331H30.0011C30.4432 93.3331 30.8671 93.1575 31.1797 92.8449C31.4922 92.5323 31.6678 92.1084 31.6678 91.6664V84.9994H52.5353L53.4953 86.1995C56.6234 90.1197 58.3297 94.9848 58.3355 100H61.669C61.6617 94.2281 59.6974 88.6292 56.0971 84.1177L54.822 82.5243L54.182 80.6043C52.6307 75.9435 52.7789 70.8841 54.6004 66.3221L54.6937 66.0887C55.7038 65.7723 56.5935 65.1555 57.2442 64.3205C57.8948 63.4855 58.2755 62.4721 58.3355 61.4152V61.3469L76.4012 57.4767C79.4673 56.8048 81.6566 54.0954 81.6697 50.9565V33.3308C81.6697 33.7729 81.8453 34.1968 82.1579 34.5094C82.4705 34.822 82.8944 34.9976 83.3364 34.9976H90.0034C90.4454 34.9976 90.8693 34.822 91.1819 34.5094C91.4945 34.1968 91.6701 33.7729 91.6701 33.3308V23.3305C91.6701 22.8884 91.4945 22.4645 91.1819 22.1519C90.8693 21.8393 90.4454 21.6637 90.0034 21.6637ZM66.6692 31.6641H63.3357V24.9972H66.6692V31.6641ZM6.66692 89.9996H3.33346V83.3327H6.66692V89.9996ZM19.5824 84.2961L19.6991 85.0044H16.9323C15.9806 83.6794 15.0006 80.2359 15.0006 71.6656C15.1387 64.3243 17.4596 57.1904 21.6675 51.1732V61.2952C19.4691 66.2754 18.739 79.2326 19.5824 84.2961ZM39.0015 3.36139C46.9061 2.82887 53.8589 8.54221 54.8687 16.4002L45.7467 11.8384C45.427 11.6777 45.0638 11.6251 44.7117 11.6884L25.3476 15.1052C26.7175 8.552 32.3172 3.73557 39.0015 3.36139ZM16.6673 39.9344V16.6636C16.674 11.5015 20.6047 7.19112 25.7443 6.70985C23.0863 9.99746 21.646 14.1026 21.6675 18.3303V20.0387C21.6675 27.1889 24.9759 31.1041 29.3744 34.5109C25.8558 37.6754 21.3866 39.5829 16.6673 39.9344ZM25.0009 20.0387V18.552L44.75 15.0668L54.9937 20.1887C54.9454 26.3956 52.1103 29.4857 46.1917 33.6309C42.4714 36.2212 37.5316 36.2212 33.8113 33.6309C27.8427 29.4507 25.0009 26.3523 25.0009 20.0387ZM31.6678 45.4496C32.7541 45.1519 33.875 45 35.0013 44.9979C35.4433 44.9979 35.8673 44.8223 36.1799 44.5098C36.4924 44.1972 36.668 43.7733 36.668 43.3312V38.4694C38.8523 39.0506 41.1507 39.0506 43.335 38.4694V43.3312C43.335 43.7733 43.5106 44.1972 43.8231 44.5098C44.1357 44.8223 44.5596 44.9979 45.0017 44.9979C46.128 45 47.2488 45.1519 48.3351 45.4496V48.1164L40.0015 49.9081L31.6678 48.1164V45.4496ZM22.5992 80.1876C22.4969 75.2041 22.9277 70.2239 23.8842 65.332C24.3184 65.6324 24.786 65.8813 25.2776 66.0737C26.9579 70.5515 27.0304 75.474 25.4826 79.9993H23.3342C23.0778 80.0032 22.8259 80.0678 22.5992 80.1876ZM28.3344 89.9996H25.0009V83.3327H28.3344V89.9996ZM31.6678 81.666C31.6678 81.2239 31.4922 80.8 31.1797 80.4874C30.8671 80.1749 30.4432 79.9993 30.0011 79.9993H29.0011C30.2626 75.6442 30.2626 71.0205 29.0011 66.6654H50.9352C49.3702 71.5478 49.4 76.8016 51.0202 81.666H31.6678ZM55.0021 61.4152C55.0021 62.3203 53.577 63.332 51.6686 63.332H28.3344C26.426 63.332 25.0009 62.3203 25.0009 61.4152V47.0347C26.0829 46.588 27.1973 46.2242 28.3344 45.9463V49.4681C28.3343 49.8494 28.4649 50.2193 28.7046 50.5159C28.9442 50.8126 29.2783 51.0181 29.6511 51.0982L39.6515 53.2499C39.8821 53.3003 40.1209 53.3003 40.3515 53.2499L50.3519 51.0982C50.7247 51.0181 51.0588 50.8126 51.2984 50.5159C51.5381 50.2193 51.6687 49.8494 51.6686 49.4681V45.9446C52.8057 46.2225 53.9201 46.5864 55.0021 47.033V61.4152ZM75.7012 54.2166L58.3355 57.9368V49.9981H68.7692C72.2371 50.0088 75.1301 47.351 75.4128 43.8946L76.5629 26.6639H78.3363V50.9565C78.3333 51.7186 78.0707 52.4569 77.5916 53.0496C77.1125 53.6423 76.4457 54.054 75.7012 54.2166ZM88.3366 31.6641H85.0032V24.9972H88.3366V31.6641Z" fill="black"/>
</svg>
