<svg width="98" height="100" viewBox="0 0 98 100" fill="none" xmlns="http://www.w3.org/2000/svg">
<path d="M74.1248 87.946C73.3565 87.9468 72.6028 87.7363 71.946 87.3376L48.5638 73.1283L24.7458 86.6102C24.0365 87.0119 23.2255 87.1979 22.4121 87.1456C21.5987 87.0933 20.8182 86.8049 20.1662 86.3157C19.5143 85.8265 19.0192 85.1578 18.7415 84.3914C18.4639 83.6251 18.4158 82.7944 18.6031 82.0011L24.8899 55.3624L4.70552 36.8792C4.10457 36.3287 3.6772 35.6149 3.47574 34.8252C3.27429 34.0356 3.30748 33.2043 3.57127 32.4332C3.83506 31.6621 4.31799 30.9847 4.96092 30.4839C5.60384 29.9831 6.37886 29.6806 7.19106 29.6136L34.4667 27.361L45.8101 2.45358C46.1478 1.71193 46.6945 1.08487 47.3831 0.649167C48.0718 0.213465 48.8726 -0.0119617 49.6874 0.000489273C50.5022 0.0129402 51.2957 0.262729 51.9707 0.719268C52.6458 1.17581 53.173 1.81928 53.4879 2.5709L64.0687 27.8152L91.2622 30.9058C92.0721 30.9977 92.8377 31.3237 93.4651 31.8441C94.0924 32.3645 94.5544 33.0566 94.7944 33.8356C95.0344 34.6146 95.0419 35.4466 94.8161 36.2299C94.5903 37.0131 94.141 37.7134 93.5232 38.2451L72.7723 56.0998L78.2361 82.9163C78.3604 83.5251 78.3477 84.154 78.199 84.7573C78.0502 85.3606 77.7691 85.9233 77.3761 86.4046C76.983 86.8859 76.4878 87.2738 75.9264 87.5401C75.3649 87.8064 74.7513 87.9445 74.1299 87.9443L74.1248 87.946ZM48.6375 64.0777C49.4058 64.0769 50.1596 64.2874 50.8163 64.6861L68.1129 75.1931L64.0687 55.3624C63.9199 54.6319 63.9686 53.875 64.2099 53.1697C64.4512 52.4644 64.8763 51.8362 65.4414 51.35L80.7787 38.1462L60.6664 35.8601C59.9257 35.7761 59.2209 35.496 58.6246 35.0488C58.0283 34.6016 57.5621 34.0034 57.2741 33.3159L49.4638 14.6517L41.0753 33.0712C40.7663 33.7493 40.2821 34.3328 39.6726 34.7614C39.0631 35.1901 38.3502 35.4484 37.6076 35.5098L17.4383 37.1758L32.3549 50.8438C32.9047 51.3472 33.3103 51.9881 33.5298 52.7005C33.7493 53.4129 33.7747 54.1709 33.6036 54.8964L28.9626 74.5931L46.5743 64.6224C47.2035 64.2658 47.9143 64.0782 48.6375 64.0777Z" fill="white"/>
<path d="M27.9635 23.1591C27.4131 23.16 26.868 23.052 26.3594 22.8415C25.8509 22.6309 25.389 22.3219 25.0003 21.9323L16.3972 13.3292C15.6113 12.5434 15.1698 11.4775 15.1698 10.366C15.1698 9.25461 15.6113 8.18871 16.3972 7.40282C17.1831 6.61693 18.249 6.17542 19.3604 6.17542C20.4719 6.17542 21.5378 6.61693 22.3237 7.40282L30.9267 16.0059C31.5129 16.5919 31.912 17.3385 32.0738 18.1514C32.2355 18.9643 32.1525 19.8069 31.8353 20.5726C31.5181 21.3384 30.981 21.9928 30.2918 22.4532C29.6026 22.9136 28.7923 23.1593 27.9635 23.1591ZM48.173 99.9999C47.0617 99.9999 45.996 99.5585 45.2102 98.7727C44.4244 97.9869 43.983 96.9211 43.983 95.8099V83.6419C43.983 82.5306 44.4244 81.4649 45.2102 80.6791C45.996 79.8933 47.0617 79.4518 48.173 79.4518C49.2843 79.4518 50.35 79.8933 51.1358 80.6791C51.9216 81.4649 52.3631 82.5306 52.3631 83.6419V95.8099C52.3631 96.9211 51.9216 97.9869 51.1358 98.7727C50.35 99.5585 49.2843 99.9999 48.173 99.9999ZM93.1023 69.8935C92.4318 69.8935 91.7712 69.732 91.1765 69.4225L80.3745 63.8229C79.4046 63.3024 78.6786 62.4211 78.3532 61.3695C78.0278 60.318 78.1293 59.1807 78.6357 58.2033C79.1421 57.226 80.0127 56.4872 81.0594 56.1466C82.1061 55.806 83.2448 55.8909 84.2294 56.383L95.0314 61.9826C95.8655 62.4145 96.5302 63.1142 96.919 63.9693C97.3077 64.8244 97.3979 65.7852 97.175 66.6977C96.9521 67.6102 96.4291 68.4213 95.6899 69.0008C94.9507 69.5804 94.0382 69.8947 93.0989 69.8935H93.1023ZM4.19576 69.8935C3.25647 69.8947 2.34399 69.5804 1.6048 69.0008C0.865607 68.4213 0.342585 67.6102 0.119689 66.6977C-0.103208 65.7852 -0.0130501 64.8244 0.375691 63.9693C0.764432 63.1142 1.42921 62.4145 2.2633 61.9826L13.0653 56.383C13.5546 56.1204 14.0913 55.9576 14.6441 55.9043C15.1969 55.8509 15.7548 55.908 16.2854 56.0721C16.8159 56.2363 17.3085 56.5043 17.7346 56.8606C18.1606 57.2168 18.5116 57.6542 18.7671 58.1473C19.0226 58.6404 19.1775 59.1794 19.2229 59.7329C19.2682 60.2864 19.203 60.8435 19.0312 61.3716C18.8593 61.8997 18.5842 62.3883 18.2218 62.8092C17.8594 63.23 17.4169 63.5746 16.9202 63.8229L6.11816 69.4225C5.5244 69.7314 4.86506 69.8929 4.19576 69.8935ZM70.6737 23.1591C69.8448 23.1593 69.0346 22.9136 68.3454 22.4532C67.6562 21.9928 67.119 21.3384 66.8018 20.5726C66.4846 19.8069 66.4016 18.9643 66.5634 18.1514C66.7251 17.3385 67.1243 16.5919 67.7105 16.0059L76.3135 7.40282C76.7026 7.01369 77.1646 6.705 77.673 6.49441C78.1815 6.28381 78.7264 6.17542 79.2767 6.17542C79.827 6.17542 80.372 6.28381 80.8804 6.49441C81.3888 6.705 81.8508 7.01369 82.2399 7.40282C82.6291 7.79195 82.9377 8.25392 83.1483 8.76235C83.3589 9.27078 83.4673 9.81571 83.4673 10.366C83.4673 10.9164 83.3589 11.4613 83.1483 11.9697C82.9377 12.4781 82.6291 12.9401 82.2399 13.3292L73.6369 21.9323C73.2482 22.3219 72.7863 22.6309 72.2777 22.8415C71.7692 23.052 71.2241 23.16 70.6737 23.1591Z" fill="white"/>
</svg>
