<svg width="288" height="385" viewBox="0 0 288 385" fill="none" xmlns="http://www.w3.org/2000/svg">
<path d="M169.476 229.121C162.93 224.527 157.008 218.191 151.883 210.289C145.293 200.129 134.18 194.063 122.153 194.063C110.121 194.063 99.0034 200.129 92.4184 210.289C87.2934 218.191 81.3714 224.527 74.8284 229.121C65.3404 235.773 59.6764 246.617 59.6764 258.129C59.6764 277.664 75.5704 293.559 95.1064 293.559H149.199C168.734 293.559 184.629 277.664 184.629 258.129C184.625 246.617 178.961 235.773 169.476 229.121ZM149.196 281.559H95.1064C82.1874 281.559 71.6764 271.047 71.6764 258.129C71.6764 250.527 75.4304 243.355 81.7154 238.945C89.5274 233.465 96.5154 226.02 102.488 216.816C106.851 210.082 114.203 206.062 122.152 206.062C130.098 206.062 137.449 210.082 141.816 216.816C147.785 226.02 154.773 233.465 162.586 238.946C168.871 243.356 172.625 250.527 172.625 258.129C172.625 271.047 162.114 281.559 149.196 281.559ZM81.6914 204.813V192.05C81.6914 182.616 74.0194 174.944 64.5904 174.944C55.1564 174.944 47.4844 182.616 47.4844 192.05V204.812C47.4844 214.245 55.1564 221.917 64.5904 221.917C74.0204 221.917 81.6914 214.245 81.6914 204.811V204.813ZM59.4844 204.813V192.05C59.4854 190.696 60.0237 189.398 60.9811 188.441C61.9384 187.484 63.2365 186.945 64.5904 186.944C65.9435 186.946 67.2404 187.485 68.1968 188.442C69.1531 189.4 69.6906 190.697 69.6914 192.05V204.812C69.6903 206.165 69.1527 207.462 68.1964 208.419C67.2401 209.376 65.9433 209.915 64.5904 209.917C63.2365 209.916 61.9384 209.378 60.9811 208.421C60.0237 207.463 59.4854 206.165 59.4844 204.811V204.813ZM196.195 192.05C196.195 182.617 188.523 174.945 179.094 174.945C169.66 174.945 161.988 182.617 161.988 192.051V204.813C161.988 214.246 169.66 221.918 179.094 221.918C188.524 221.918 196.195 214.242 196.195 204.812V192.05ZM184.195 204.812C184.195 206.165 183.657 207.463 182.701 208.42C181.744 209.377 180.447 209.916 179.094 209.918C177.741 209.917 176.442 209.379 175.485 208.421C174.528 207.464 173.989 206.166 173.988 204.812V192.051C173.989 190.697 174.528 189.399 175.485 188.442C176.442 187.485 177.741 186.946 179.094 186.945C180.447 186.947 181.744 187.486 182.701 188.443C183.657 189.401 184.195 190.698 184.195 192.051V204.812ZM100.699 191.09C110.133 191.09 117.805 183.418 117.805 173.984V161.223C117.805 151.789 110.133 144.117 100.699 144.117C91.2694 144.117 83.5984 151.789 83.5984 161.223V173.984C83.5984 183.418 91.2694 191.09 100.699 191.09ZM95.5984 161.223C95.5992 159.87 96.1367 158.573 97.093 157.615C98.0493 156.658 99.3463 156.119 100.699 156.117C102.053 156.118 103.351 156.657 104.309 157.614C105.266 158.571 105.804 159.869 105.805 161.223V173.984C105.804 175.338 105.266 176.636 104.309 177.594C103.351 178.551 102.053 179.089 100.699 179.09C99.3463 179.088 98.0493 178.549 97.093 177.592C96.1367 176.635 95.5992 175.337 95.5984 173.984V161.223ZM142.98 191.09C152.41 191.09 160.082 183.418 160.082 173.984V161.223C160.082 151.789 152.41 144.117 142.98 144.117C133.547 144.117 125.875 151.789 125.875 161.223V173.984C125.875 183.418 133.547 191.09 142.98 191.09ZM137.875 161.223C137.876 159.869 138.415 158.572 139.372 157.614C140.329 156.657 141.627 156.119 142.98 156.117C144.334 156.119 145.631 156.658 146.587 157.615C147.544 158.572 148.082 159.87 148.082 161.223V173.984C148.082 175.337 147.544 176.635 146.587 177.592C145.631 178.55 144.334 179.088 142.98 179.09C141.627 179.089 140.329 178.55 139.372 177.593C138.415 176.636 137.876 175.338 137.875 173.984V161.223Z" fill="black"/>
<path d="M238.68 274.582V149.477C238.68 130.441 231.172 112.641 217.543 99.347C204.207 86.347 195.808 68.605 193.785 49.68H212.312V0H26.367V49.68H52.644C48.82 67.527 39.114 83.867 24.73 96.074C9.013 109.414 0 128.88 0 149.477V349.69H181.75C189.898 369.839 209.648 384.093 232.68 384.093C262.965 384.093 287.601 359.453 287.601 329.171C287.601 300.913 266.152 277.581 238.68 274.581V274.582ZM238.68 286.676C257.555 289.332 272.52 304.296 275.172 323.172H190.187C190.796 318.812 192.078 314.572 193.988 310.605L197.516 304.605C204.196 295.075 214.641 288.371 226.68 286.675C228.668 286.395 230.673 286.253 232.68 286.25C234.719 286.25 236.719 286.402 238.68 286.676ZM38.367 37.676V12H200.313V37.68H38.367V37.676ZM32.496 105.223C49.59 90.715 60.906 71.074 64.883 49.68H181.719C183.789 71.84 193.531 92.7 209.164 107.941C213.318 111.98 216.846 116.615 219.633 121.695H19.093C22.5098 115.427 27.0535 109.843 32.496 105.223ZM178.422 337.69H12V316.604H179.226C178.254 320.722 177.761 324.939 177.758 329.171C177.758 332.069 177.988 334.913 178.422 337.691V337.69ZM12 304.605V149.477C12 144.078 12.75 138.777 14.187 133.695H224.507C225.949 138.832 226.68 144.142 226.68 149.477V274.582C207.793 276.645 191.762 288.324 183.582 304.605H12ZM232.68 372.094C216.441 372.094 202.285 363.027 194.992 349.691C192.937 345.934 191.461 341.889 190.613 337.691C190.445 336.856 190.303 336.015 190.187 335.171H275.172C272.246 356.008 254.312 372.094 232.68 372.094Z" fill="black"/>
</svg>
